<?xml version="1.0" encoding="UTF-8"?>
<!DOCTYPE score-partwise PUBLIC "-//Recordare//DTD MusicXML 1.1 Partwise//EN" "http://www.musicxml.org/dtds/partwise.dtd">
<score-partwise version="1.1">
    <identification>
        <encoding>
            <software>Audiveris 3.0</software>
            <encoding-date>2008-01-23</encoding-date>
            <software>ProxyMusic 1.1</software>
        </encoding>
        <source>/home/smile/audiveris/examples/chula.png</source>
    </identification>
    <defaults>
        <scaling>
            <millimeters>7.112</millimeters>
            <tenths>40</tenths>
        </scaling>
        <page-layout>
            <page-height>930</page-height>
            <page-width>1167</page-width>
        </page-layout>
    </defaults>
    <part-list>
        <score-part id="P1">
            <part-name>Part_1</part-name>
        </score-part>
    </part-list>
    <part id="P1">
        <measure width="126" number="1">
            <print>
                <system-layout>
                    <system-margins>
                        <left-margin>97</left-margin>
                        <right-margin>58</right-margin>
                    </system-margins>
                    <top-system-distance>166</top-system-distance>
                </system-layout>
                <staff-layout number="2">
                    <staff-distance>75</staff-distance>
                </staff-layout>
            </print>
            <attributes>
                <divisions>12</divisions>
                <key>
                    <fifths>-2</fifths>
                </key>
                <time>
                    <beats>2</beats>
                    <beat-type>4</beat-type>
                </time>
                <staves>2</staves>
                <clef number="1">
                    <sign>G</sign>
                    <line>2</line>
                </clef>
                <clef number="2">
                    <sign>G</sign>
                    <line>2</line>
                </clef>
            </attributes>
            <note default-x="93">
                <pitch>
                    <step>B</step>
                    <alter>-1</alter>
                    <octave>4</octave>
                </pitch>
                <duration>6</duration>
                <voice>1</voice>
                <type>eighth</type>
                <stem default-y="-61">down</stem>
                <staff>1</staff>
            </note>
            <backup>
                <duration>6</duration>
            </backup>
            <note default-x="92">
                <rest/>
                <duration>6</duration>
                <voice>2</voice>
                <type>eighth</type>
                <staff>2</staff>
            </note>
        </measure>
        <measure width="175" number="2">
            <note default-x="16">
                <pitch>
                    <step>D</step>
                    <octave>5</octave>
                </pitch>
                <duration>9</duration>
                <voice>1</voice>
                <type>eighth</type>
                <dot/>
                <stem default-y="-52">down</stem>
                <staff>1</staff>
                <beam number="1">begin</beam>
            </note>
            <note default-x="66">
                <pitch>
                    <step>D</step>
                    <octave>5</octave>
                </pitch>
                <duration>3</duration>
                <voice>1</voice>
                <type>16th</type>
                <stem default-y="-51">down</stem>
                <staff>1</staff>
                <beam number="1">end</beam>
                <beam number="2">backward hook</beam>
            </note>
            <note default-x="88">
                <pitch>
                    <step>F</step>
                    <octave>5</octave>
                </pitch>
                <duration>3</duration>
                <voice>1</voice>
                <type>16th</type>
                <stem default-y="-49">down</stem>
                <staff>1</staff>
                <beam number="1">begin</beam>
                <beam number="2">forward hook</beam>
            </note>
            <note default-x="109">
                <pitch>
                    <step>E</step>
                    <alter>-1</alter>
                    <octave>5</octave>
                </pitch>
                <duration>6</duration>
                <voice>1</voice>
                <type>eighth</type>
                <stem default-y="-49">down</stem>
                <staff>1</staff>
                <beam number="1">continue</beam>
            </note>
            <note default-x="150">
                <pitch>
                    <step>D</step>
                    <octave>5</octave>
                </pitch>
                <duration>3</duration>
                <voice>1</voice>
                <type>16th</type>
                <stem default-y="-51">down</stem>
                <staff>1</staff>
                <beam number="1">end</beam>
                <beam number="3">backward hook</beam>
            </note>
            <backup>
                <duration>24</duration>
            </backup>
            <note default-x="18">
                <pitch>
                    <step>B</step>
                    <alter>-1</alter>
                    <octave>5</octave>
                </pitch>
                <duration>3</duration>
                <voice>2</voice>
                <type>16th</type>
                <stem default-y="-41">down</stem>
                <staff>2</staff>
                <beam number="1">begin</beam>
                <beam number="2">forward hook</beam>
            </note>
            <note default-x="39">
                <pitch>
                    <step>G</step>
                    <octave>5</octave>
                </pitch>
                <duration>6</duration>
                <voice>2</voice>
                <type>eighth</type>
                <stem default-y="-41">down</stem>
                <staff>2</staff>
                <beam number="1">continue</beam>
            </note>
            <note default-x="67">
                <pitch>
                    <step>F</step>
                    <octave>5</octave>
                </pitch>
                <duration>3</duration>
                <voice>2</voice>
                <type>16th</type>
                <stem default-y="-41">down</stem>
                <staff>2</staff>
                <beam number="1">end</beam>
                <beam number="3">backward hook</beam>
            </note>
            <note default-x="90">
                <pitch>
                    <step>D</step>
                    <octave>5</octave>
                </pitch>
                <duration>6</duration>
                <voice>2</voice>
                <type>eighth</type>
                <stem default-y="-49">down</stem>
                <staff>2</staff>
                <beam number="1">begin</beam>
            </note>
            <note default-x="132">
                <pitch>
                    <step>F</step>
                    <octave>5</octave>
                </pitch>
                <duration>6</duration>
                <voice>2</voice>
                <type>eighth</type>
                <stem default-y="-46">down</stem>
                <staff>2</staff>
                <beam number="1">end</beam>
            </note>
        </measure>
        <measure width="163" number="3">
            <note default-x="18">
                <pitch>
                    <step>D</step>
                    <octave>5</octave>
                </pitch>
                <duration>12</duration>
                <voice>1</voice>
                <type>quarter</type>
                <stem default-y="-50">down</stem>
                <staff>1</staff>
            </note>
            <note default-x="90">
                <pitch>
                    <step>C</step>
                    <octave>5</octave>
                </pitch>
                <duration>6</duration>
                <voice>1</voice>
                <type>eighth</type>
                <stem default-y="-58">down</stem>
                <staff>1</staff>
            </note>
            <note default-x="118">
                <rest/>
                <duration>3</duration>
                <voice>1</voice>
                <type>16th</type>
                <staff>1</staff>
            </note>
            <note default-x="135">
                <pitch>
                    <step>A</step>
                    <octave>4</octave>
                </pitch>
                <duration>3</duration>
                <voice>1</voice>
                <type>16th</type>
                <stem default-y="19">up</stem>
                <staff>1</staff>
            </note>
            <backup>
                <duration>24</duration>
            </backup>
            <note default-x="19">
                <pitch>
                    <step>A</step>
                    <octave>5</octave>
                </pitch>
                <duration>3</duration>
                <voice>2</voice>
                <type>16th</type>
                <stem default-y="-41">down</stem>
                <staff>2</staff>
                <beam number="1">begin</beam>
                <beam number="2">forward hook</beam>
            </note>
            <note default-x="39">
                <pitch>
                    <step>G</step>
                    <octave>5</octave>
                </pitch>
                <duration>6</duration>
                <voice>2</voice>
                <type>eighth</type>
                <stem default-y="-41">down</stem>
                <staff>2</staff>
                <beam number="1">continue</beam>
            </note>
            <note default-x="68">
                <pitch>
                    <step>F</step>
                    <octave>5</octave>
                </pitch>
                <duration>3</duration>
                <voice>2</voice>
                <type>16th</type>
                <stem default-y="-41">down</stem>
                <staff>2</staff>
                <beam number="1">end</beam>
                <beam number="3">backward hook</beam>
            </note>
            <note default-x="91">
                <pitch>
                    <step>E</step>
                    <alter>-1</alter>
                    <octave>5</octave>
                </pitch>
                <duration>6</duration>
                <voice>2</voice>
                <type>eighth</type>
                <stem default-y="-46">down</stem>
                <staff>2</staff>
                <beam number="1">begin</beam>
            </note>
            <note default-x="120">
                <pitch>
                    <step>F</step>
                    <octave>5</octave>
                </pitch>
                <duration>6</duration>
                <voice>2</voice>
                <type>eighth</type>
                <stem default-y="-44">down</stem>
                <staff>2</staff>
                <beam number="1">end</beam>
            </note>
        </measure>
        <measure width="176" number="4">
            <note default-x="18">
                <pitch>
                    <step>C</step>
                    <octave>5</octave>
                </pitch>
                <duration>9</duration>
                <voice>1</voice>
                <type>eighth</type>
                <dot/>
                <stem default-y="-56">down</stem>
                <staff>1</staff>
                <beam number="1">begin</beam>
            </note>
            <note default-x="68">
                <pitch>
                    <step>C</step>
                    <octave>5</octave>
                </pitch>
                <duration>3</duration>
                <voice>1</voice>
                <type>16th</type>
                <stem default-y="-55">down</stem>
                <staff>1</staff>
                <beam number="1">end</beam>
                <beam number="2">backward hook</beam>
            </note>
            <note default-x="90">
                <pitch>
                    <step>F</step>
                    <octave>5</octave>
                </pitch>
                <duration>3</duration>
                <voice>1</voice>
                <type>16th</type>
                <stem default-y="-49">down</stem>
                <staff>1</staff>
                <beam number="1">begin</beam>
                <beam number="2">forward hook</beam>
            </note>
            <note default-x="110">
                <pitch>
                    <step>E</step>
                    <alter>-1</alter>
                    <octave>5</octave>
                </pitch>
                <duration>6</duration>
                <voice>1</voice>
                <type>eighth</type>
                <stem default-y="-50">down</stem>
                <staff>1</staff>
                <beam number="1">continue</beam>
            </note>
            <note default-x="149">
                <pitch>
                    <step>C</step>
                    <octave>5</octave>
                </pitch>
                <duration>3</duration>
                <voice>1</voice>
                <type>16th</type>
                <stem default-y="-51">down</stem>
                <staff>1</staff>
                <beam number="1">end</beam>
                <beam number="3">backward hook</beam>
            </note>
            <backup>
                <duration>24</duration>
            </backup>
            <note default-x="18">
                <pitch>
                    <step>A</step>
                    <octave>5</octave>
                </pitch>
                <duration>3</duration>
                <voice>2</voice>
                <type>16th</type>
                <stem default-y="-31">down</stem>
                <staff>2</staff>
                <beam number="1">begin</beam>
                <beam number="2">forward hook</beam>
            </note>
            <note default-x="42">
                <pitch>
                    <step>G</step>
                    <octave>5</octave>
                </pitch>
                <duration>6</duration>
                <voice>2</voice>
                <type>eighth</type>
                <stem default-y="-41">down</stem>
                <staff>2</staff>
                <beam number="1">continue</beam>
            </note>
            <note default-x="69">
                <pitch>
                    <step>F</step>
                    <octave>5</octave>
                </pitch>
                <duration>3</duration>
                <voice>2</voice>
                <type>16th</type>
                <stem default-y="-41">down</stem>
                <staff>2</staff>
                <beam number="1">end</beam>
                <beam number="3">backward hook</beam>
            </note>
            <note default-x="91">
                <pitch>
                    <step>E</step>
                    <alter>-1</alter>
                    <octave>5</octave>
                </pitch>
                <duration>6</duration>
                <voice>2</voice>
                <type>eighth</type>
                <stem default-y="-44">down</stem>
                <staff>2</staff>
                <beam number="1">begin</beam>
            </note>
            <note default-x="131">
                <pitch>
                    <step>F</step>
                    <octave>5</octave>
                </pitch>
                <duration>6</duration>
                <voice>2</voice>
                <type>eighth</type>
                <stem default-y="-44">down</stem>
                <staff>2</staff>
                <beam number="1">end</beam>
            </note>
        </measure>
        <measure width="129" number="5">
            <barline location="right">
                <bar-style>light-heavy</bar-style>
                <repeat direction="backward"/>
            </barline>
            <note default-x="15">
                <pitch>
                    <step>D</step>
                    <octave>5</octave>
                </pitch>
                <duration>12</duration>
                <voice>1</voice>
                <type>quarter</type>
                <stem default-y="-49">down</stem>
                <staff>1</staff>
            </note>
            <forward>
                <duration>36</duration>
                <voice>1</voice>
                <staff>1</staff>
            </forward>
            <backup>
                <duration>12</duration>
            </backup>
            <note default-x="16">
                <pitch>
                    <step>B</step>
                    <alter>-1</alter>
                    <octave>5</octave>
                </pitch>
                <duration>3</duration>
                <voice>2</voice>
                <type>16th</type>
                <stem default-y="-38">down</stem>
                <staff>2</staff>
                <beam number="1">begin</beam>
                <beam number="2">forward hook</beam>
            </note>
            <note default-x="36">
                <pitch>
                    <step>G</step>
                    <octave>5</octave>
                </pitch>
                <duration>6</duration>
                <voice>2</voice>
                <type>eighth</type>
                <stem default-y="-38">down</stem>
                <staff>2</staff>
                <beam number="1">end</beam>
            </note>
            <note default-x="89">
                <pitch>
                    <step>B</step>
                    <alter>-1</alter>
                    <octave>5</octave>
                </pitch>
                <duration>6</duration>
                <voice>2</voice>
                <type>eighth</type>
                <stem default-y="-26">down</stem>
                <staff>2</staff>
            </note>
            <forward>
                <duration>33</duration>
                <voice>2</voice>
                <staff>2</staff>
            </forward>
            <backup>
                <duration>15</duration>
            </backup>
            <forward>
                <duration>9</duration>
                <voice>3</voice>
                <staff>1</staff>
            </forward>
            <note default-x="88">
                <pitch>
                    <step>D</step>
                    <octave>5</octave>
                </pitch>
                <duration>6</duration>
                <voice>3</voice>
                <type>eighth</type>
                <stem default-y="-47">down</stem>
                <staff>1</staff>
            </note>
            <forward>
                <duration>33</duration>
                <voice>3</voice>
                <staff>1</staff>
            </forward>
        </measure>
        <measure width="69" number="6">
            <barline location="left">
                <bar-style>heavy-light</bar-style>
                <repeat direction="forward"/>
            </barline>
            <note default-x="21">
                <pitch>
                    <step>B</step>
                    <alter>-1</alter>
                    <octave>4</octave>
                </pitch>
                <duration>3</duration>
                <voice>1</voice>
                <type>16th</type>
                <stem default-y="-62">down</stem>
                <staff>1</staff>
                <beam number="1">begin</beam>
                <beam number="2">begin</beam>
            </note>
            <note default-x="44">
                <pitch>
                    <step>C</step>
                    <octave>5</octave>
                </pitch>
                <duration>3</duration>
                <voice>1</voice>
                <type>16th</type>
                <stem default-y="-61">down</stem>
                <staff>1</staff>
                <beam number="1">end</beam>
                <beam number="2">end</beam>
            </note>
            <backup>
                <duration>6</duration>
            </backup>
            <note default-x="20">
                <rest/>
                <duration>6</duration>
                <voice>2</voice>
                <type>eighth</type>
                <staff>2</staff>
            </note>
        </measure>
        <measure width="172" number="7">
            <note default-x="16">
                <pitch>
                    <step>D</step>
                    <octave>5</octave>
                </pitch>
                <duration>9</duration>
                <voice>1</voice>
                <type>eighth</type>
                <dot/>
                <stem default-y="-54">down</stem>
                <staff>1</staff>
                <beam number="1">begin</beam>
            </note>
            <note default-x="64">
                <pitch>
                    <step>D</step>
                    <octave>5</octave>
                </pitch>
                <duration>3</duration>
                <voice>1</voice>
                <type>16th</type>
                <stem default-y="-54">down</stem>
                <staff>1</staff>
                <beam number="1">end</beam>
                <beam number="2">backward hook</beam>
            </note>
            <note default-x="87">
                <pitch>
                    <step>D</step>
                    <octave>5</octave>
                </pitch>
                <duration>3</duration>
                <voice>1</voice>
                <type>16th</type>
                <stem default-y="-56">down</stem>
                <staff>1</staff>
                <beam number="1">begin</beam>
                <beam number="2">forward hook</beam>
            </note>
            <note default-x="106">
                <pitch>
                    <step>C</step>
                    <octave>5</octave>
                </pitch>
                <duration>6</duration>
                <voice>1</voice>
                <type>eighth</type>
                <stem default-y="-57">down</stem>
                <staff>1</staff>
                <beam number="1">continue</beam>
            </note>
            <note default-x="148">
                <pitch>
                    <step>B</step>
                    <alter>-1</alter>
                    <octave>4</octave>
                </pitch>
                <duration>3</duration>
                <voice>1</voice>
                <type>16th</type>
                <stem default-y="-58">down</stem>
                <staff>1</staff>
                <beam number="1">end</beam>
                <beam number="3">backward hook</beam>
            </note>
            <backup>
                <duration>24</duration>
            </backup>
            <note default-x="17">
                <pitch>
                    <step>B</step>
                    <alter>-1</alter>
                    <octave>4</octave>
                </pitch>
                <duration>6</duration>
                <voice>2</voice>
                <type>eighth</type>
                <stem default-y="-62">down</stem>
                <staff>2</staff>
                <beam number="1">begin</beam>
            </note>
            <note default-x="46">
                <pitch>
                    <step>D</step>
                    <octave>5</octave>
                </pitch>
                <duration>6</duration>
                <voice>2</voice>
                <type>eighth</type>
                <stem default-y="-60">down</stem>
                <staff>2</staff>
                <beam number="1">end</beam>
            </note>
            <note default-x="87">
                <pitch>
                    <step>B</step>
                    <alter>-1</alter>
                    <octave>5</octave>
                </pitch>
                <duration>6</duration>
                <voice>2</voice>
                <type>eighth</type>
                <stem default-y="-34">down</stem>
                <staff>2</staff>
                <beam number="1">begin</beam>
            </note>
            <note default-x="126">
                <pitch>
                    <step>G</step>
                    <octave>5</octave>
                </pitch>
                <duration>6</duration>
                <voice>2</voice>
                <type>eighth</type>
                <stem default-y="-35">down</stem>
                <staff>2</staff>
                <beam number="1">end</beam>
            </note>
        </measure>
        <measure width="224" number="8">
            <print new-system="yes">
                <system-layout>
                    <system-margins>
                        <left-margin>45</left-margin>
                        <right-margin>56</right-margin>
                    </system-margins>
                    <system-distance>124</system-distance>
                </system-layout>
                <staff-layout number="2">
                    <staff-distance>78</staff-distance>
                </staff-layout>
            </print>
            <note default-x="72">
                <pitch>
                    <step>C</step>
                    <octave>5</octave>
                </pitch>
                <duration>12</duration>
                <voice>1</voice>
                <type>quarter</type>
                <stem default-y="-52">down</stem>
                <staff>1</staff>
            </note>
            <note default-x="140">
                <pitch>
                    <step>A</step>
                    <octave>4</octave>
                </pitch>
                <duration>6</duration>
                <voice>1</voice>
                <type>eighth</type>
                <stem default-y="18">up</stem>
                <staff>1</staff>
                <beam number="1">begin</beam>
            </note>
            <note default-x="175">
                <rest/>
                <duration>3</duration>
                <voice>1</voice>
                <type>16th</type>
                <staff>1</staff>
            </note>
            <note default-x="196">
                <pitch>
                    <step>A</step>
                    <octave>4</octave>
                </pitch>
                <duration>3</duration>
                <voice>1</voice>
                <type>16th</type>
                <stem default-y="18">up</stem>
                <staff>1</staff>
                <beam number="1">end</beam>
                <beam number="2">backward hook</beam>
            </note>
            <backup>
                <duration>24</duration>
            </backup>
            <note default-x="72">
                <pitch>
                    <step>C</step>
                    <octave>5</octave>
                </pitch>
                <duration>6</duration>
                <voice>2</voice>
                <type>eighth</type>
                <stem default-y="-55">down</stem>
                <staff>2</staff>
                <beam number="1">begin</beam>
            </note>
            <note default-x="108">
                <pitch>
                    <step>E</step>
                    <alter>-1</alter>
                    <octave>5</octave>
                </pitch>
                <duration>6</duration>
                <voice>2</voice>
                <type>eighth</type>
                <stem default-y="-53">down</stem>
                <staff>2</staff>
                <beam number="1">end</beam>
            </note>
            <note default-x="142">
                <pitch>
                    <step>G</step>
                    <octave>5</octave>
                </pitch>
                <duration>6</duration>
                <voice>2</voice>
                <type>eighth</type>
                <stem default-y="-41">down</stem>
                <staff>2</staff>
                <beam number="1">begin</beam>
            </note>
            <note default-x="176">
                <pitch>
                    <step>F</step>
                    <alter>1</alter>
                    <octave>5</octave>
                </pitch>
                <duration>6</duration>
                <voice>2</voice>
                <type>eighth</type>
                <accidental>sharp</accidental>
                <stem default-y="-41">down</stem>
                <staff>2</staff>
                <beam number="1">end</beam>
            </note>
        </measure>
        <measure width="204" number="9">
            <note default-x="20">
                <pitch>
                    <step>A</step>
                    <octave>4</octave>
                </pitch>
                <duration>4</duration>
                <voice>1</voice>
                <type>eighth</type>
                <time-modification>
                    <actual-notes>3</actual-notes>
                    <normal-notes>2</normal-notes>
                </time-modification>
                <stem default-y="16">up</stem>
                <staff>1</staff>
                <beam number="1">begin</beam>
                <notations>
                    <tuplet placement="above" type="start" number="1"/>
                </notations>
            </note>
            <note default-x="50">
                <pitch>
                    <step>A</step>
                    <octave>4</octave>
                </pitch>
                <duration>4</duration>
                <voice>1</voice>
                <type>eighth</type>
                <time-modification>
                    <actual-notes>3</actual-notes>
                    <normal-notes>2</normal-notes>
                </time-modification>
                <stem default-y="16">up</stem>
                <staff>1</staff>
                <beam number="1">continue</beam>
            </note>
            <note default-x="76">
                <pitch>
                    <step>A</step>
                    <octave>4</octave>
                </pitch>
                <duration>4</duration>
                <voice>1</voice>
                <type>eighth</type>
                <time-modification>
                    <actual-notes>3</actual-notes>
                    <normal-notes>2</normal-notes>
                </time-modification>
                <stem default-y="16">up</stem>
                <staff>1</staff>
                <beam number="1">end</beam>
                <notations>
                    <tuplet type="stop" number="1"/>
                </notations>
            </note>
            <note default-x="105">
                <pitch>
                    <step>A</step>
                    <octave>4</octave>
                </pitch>
                <duration>3</duration>
                <voice>1</voice>
                <type>16th</type>
                <stem default-y="16">up</stem>
                <staff>1</staff>
                <beam number="1">begin</beam>
                <beam number="2">forward hook</beam>
            </note>
            <note default-x="128">
                <pitch>
                    <step>G</step>
                    <octave>4</octave>
                </pitch>
                <duration>6</duration>
                <voice>1</voice>
                <type>eighth</type>
                <stem default-y="15">up</stem>
                <staff>1</staff>
                <beam number="1">continue</beam>
            </note>
            <note default-x="174">
                <pitch>
                    <step>F</step>
                    <alter>1</alter>
                    <octave>4</octave>
                </pitch>
                <duration>3</duration>
                <voice>1</voice>
                <type>16th</type>
                <accidental>sharp</accidental>
                <stem default-y="14">up</stem>
                <staff>1</staff>
                <beam number="1">end</beam>
                <beam number="3">backward hook</beam>
            </note>
            <backup>
                <duration>24</duration>
            </backup>
            <note default-x="22">
                <pitch>
                    <step>E</step>
                    <alter>-1</alter>
                    <octave>5</octave>
                </pitch>
                <duration>6</duration>
                <voice>2</voice>
                <type>eighth</type>
                <stem default-y="-48">down</stem>
                <staff>2</staff>
                <beam number="1">begin</beam>
            </note>
            <note default-x="64">
                <pitch>
                    <step>D</step>
                    <octave>5</octave>
                </pitch>
                <duration>6</duration>
                <voice>2</voice>
                <type>eighth</type>
                <stem default-y="-49">down</stem>
                <staff>2</staff>
                <beam number="1">end</beam>
            </note>
            <note default-x="107">
                <pitch>
                    <step>C</step>
                    <octave>5</octave>
                </pitch>
                <duration>6</duration>
                <voice>2</voice>
                <type>eighth</type>
                <stem default-y="-55">down</stem>
                <staff>2</staff>
                <beam number="1">begin</beam>
            </note>
            <note default-x="152">
                <pitch>
                    <step>D</step>
                    <octave>5</octave>
                </pitch>
                <duration>6</duration>
                <voice>2</voice>
                <type>eighth</type>
                <stem default-y="-52">down</stem>
                <staff>2</staff>
                <beam number="1">end</beam>
            </note>
        </measure>
        <measure width="142" number="10">
            <barline location="right">
                <bar-style>light-heavy</bar-style>
                <repeat direction="backward"/>
            </barline>
            <note default-x="16">
                <pitch>
                    <step>G</step>
                    <octave>4</octave>
                </pitch>
                <duration>12</duration>
                <voice>1</voice>
                <type>quarter</type>
                <stem default-y="9">up</stem>
                <staff>1</staff>
            </note>
            <note default-x="99">
                <pitch>
                    <step>G</step>
                    <octave>4</octave>
                </pitch>
                <duration>6</duration>
                <voice>1</voice>
                <type>eighth</type>
                <stem default-y="10">up</stem>
                <staff>1</staff>
            </note>
            <backup>
                <duration>18</duration>
            </backup>
            <note default-x="18">
                <pitch>
                    <step>B</step>
                    <alter>-1</alter>
                    <octave>4</octave>
                </pitch>
                <duration>3</duration>
                <voice>2</voice>
                <type>16th</type>
                <stem default-y="-59">down</stem>
                <staff>2</staff>
                <beam number="1">begin</beam>
                <beam number="2">forward hook</beam>
            </note>
            <note default-x="44">
                <pitch>
                    <step>C</step>
                    <octave>5</octave>
                </pitch>
                <duration>6</duration>
                <voice>2</voice>
                <type>eighth</type>
                <stem default-y="-58">down</stem>
                <staff>2</staff>
                <beam number="1">continue</beam>
            </note>
            <note default-x="78">
                <pitch>
                    <step>D</step>
                    <octave>5</octave>
                </pitch>
                <duration>3</duration>
                <voice>2</voice>
                <type>16th</type>
                <stem default-y="-56">down</stem>
                <staff>2</staff>
                <beam number="1">end</beam>
                <beam number="3">backward hook</beam>
            </note>
            <note default-x="101">
                <pitch>
                    <step>B</step>
                    <alter>-1</alter>
                    <octave>4</octave>
                </pitch>
                <duration>6</duration>
                <voice>2</voice>
                <type>eighth</type>
                <stem default-y="-61">down</stem>
                <staff>2</staff>
            </note>
        </measure>
        <measure width="80" number="11">
            <barline location="left">
                <bar-style>light-heavy</bar-style>
            </barline>
            <note default-x="26">
                <pitch>
                    <step>G</step>
                    <octave>4</octave>
                </pitch>
                <duration>3</duration>
                <voice>1</voice>
                <type>16th</type>
                <stem default-y="12">up</stem>
                <staff>1</staff>
                <beam number="1">begin</beam>
                <beam number="2">begin</beam>
            </note>
            <note default-x="51">
                <pitch>
                    <step>G</step>
                    <octave>4</octave>
                </pitch>
                <duration>3</duration>
                <voice>1</voice>
                <type>16th</type>
                <stem default-y="12">up</stem>
                <staff>1</staff>
                <beam number="1">end</beam>
                <beam number="2">end</beam>
            </note>
            <backup>
                <duration>6</duration>
            </backup>
            <note default-x="27">
                <rest/>
                <duration>6</duration>
                <voice>2</voice>
                <type>eighth</type>
                <staff>2</staff>
            </note>
        </measure>
        <measure width="214" number="12">
            <note default-x="16">
                <pitch>
                    <step>A</step>
                    <octave>4</octave>
                </pitch>
                <duration>3</duration>
                <voice>1</voice>
                <type>16th</type>
                <stem default-y="19">up</stem>
                <staff>1</staff>
                <beam number="1">begin</beam>
                <beam number="2">begin</beam>
            </note>
            <note default-x="42">
                <pitch>
                    <step>A</step>
                    <octave>4</octave>
                </pitch>
                <duration>3</duration>
                <voice>1</voice>
                <type>16th</type>
                <stem default-y="9">up</stem>
                <staff>1</staff>
                <beam number="1">continue</beam>
                <beam number="2">continue</beam>
            </note>
            <note default-x="64">
                <pitch>
                    <step>A</step>
                    <octave>4</octave>
                </pitch>
                <duration>3</duration>
                <voice>1</voice>
                <type>16th</type>
                <stem default-y="10">up</stem>
                <staff>1</staff>
                <beam number="1">continue</beam>
                <beam number="2">continue</beam>
            </note>
            <note default-x="88">
                <pitch>
                    <step>A</step>
                    <octave>4</octave>
                </pitch>
                <duration>3</duration>
                <voice>1</voice>
                <type>16th</type>
                <stem default-y="19">up</stem>
                <staff>1</staff>
                <beam number="1">end</beam>
                <beam number="2">end</beam>
            </note>
            <note default-x="117">
                <pitch>
                    <step>C</step>
                    <octave>5</octave>
                </pitch>
                <duration>3</duration>
                <voice>1</voice>
                <type>16th</type>
                <stem default-y="-64">down</stem>
                <staff>1</staff>
                <beam number="1">begin</beam>
                <beam number="2">begin</beam>
            </note>
            <note default-x="138">
                <pitch>
                    <step>C</step>
                    <octave>5</octave>
                </pitch>
                <duration>3</duration>
                <voice>1</voice>
                <type>16th</type>
                <stem default-y="-54">down</stem>
                <staff>1</staff>
                <beam number="1">continue</beam>
                <beam number="2">continue</beam>
            </note>
            <note default-x="162">
                <pitch>
                    <step>B</step>
                    <alter>-1</alter>
                    <octave>4</octave>
                </pitch>
                <duration>3</duration>
                <voice>1</voice>
                <type>16th</type>
                <stem default-y="-55">down</stem>
                <staff>1</staff>
                <beam number="1">continue</beam>
                <beam number="2">continue</beam>
            </note>
            <note default-x="186">
                <pitch>
                    <step>A</step>
                    <octave>4</octave>
                </pitch>
                <duration>3</duration>
                <voice>1</voice>
                <type>16th</type>
                <stem default-y="-65">down</stem>
                <staff>1</staff>
                <beam number="1">end</beam>
                <beam number="2">end</beam>
            </note>
            <backup>
                <duration>24</duration>
            </backup>
            <note default-x="18">
                <pitch>
                    <step>E</step>
                    <alter>-1</alter>
                    <octave>5</octave>
                </pitch>
                <duration>3</duration>
                <voice>2</voice>
                <type>16th</type>
                <stem default-y="-56">down</stem>
                <staff>2</staff>
                <beam number="1">begin</beam>
                <beam number="2">begin</beam>
            </note>
            <note default-x="43">
                <pitch>
                    <step>D</step>
                    <octave>5</octave>
                </pitch>
                <duration>3</duration>
                <voice>2</voice>
                <type>16th</type>
                <stem default-y="-46">down</stem>
                <staff>2</staff>
                <beam number="1">continue</beam>
                <beam number="2">continue</beam>
            </note>
            <note default-x="66">
                <pitch>
                    <step>C</step>
                    <octave>5</octave>
                </pitch>
                <duration>3</duration>
                <voice>2</voice>
                <type>16th</type>
                <stem default-y="-46">down</stem>
                <staff>2</staff>
                <beam number="1">continue</beam>
                <beam number="2">continue</beam>
            </note>
            <note default-x="90">
                <pitch>
                    <step>F</step>
                    <octave>5</octave>
                </pitch>
                <duration>3</duration>
                <voice>2</voice>
                <type>16th</type>
                <stem default-y="-55">down</stem>
                <staff>2</staff>
                <beam number="1">end</beam>
                <beam number="2">end</beam>
            </note>
            <note default-x="118">
                <pitch>
                    <step>E</step>
                    <alter>-1</alter>
                    <octave>5</octave>
                </pitch>
                <duration>3</duration>
                <voice>2</voice>
                <type>16th</type>
                <stem default-y="-58">down</stem>
                <staff>2</staff>
                <beam number="1">begin</beam>
                <beam number="2">begin</beam>
            </note>
            <note default-x="139">
                <pitch>
                    <step>D</step>
                    <octave>5</octave>
                </pitch>
                <duration>3</duration>
                <voice>2</voice>
                <type>16th</type>
                <stem default-y="-48">down</stem>
                <staff>2</staff>
                <beam number="1">continue</beam>
                <beam number="2">continue</beam>
            </note>
            <note default-x="162">
                <pitch>
                    <step>C</step>
                    <octave>5</octave>
                </pitch>
                <duration>3</duration>
                <voice>2</voice>
                <type>16th</type>
                <stem default-y="-48">down</stem>
                <staff>2</staff>
                <beam number="1">continue</beam>
                <beam number="2">continue</beam>
            </note>
            <note default-x="187">
                <pitch>
                    <step>F</step>
                    <octave>5</octave>
                </pitch>
                <duration>3</duration>
                <voice>2</voice>
                <type>16th</type>
                <stem default-y="-58">down</stem>
                <staff>2</staff>
                <beam number="1">end</beam>
                <beam number="2">end</beam>
            </note>
        </measure>
        <measure width="202" number="13">
            <note default-x="20">
                <pitch>
                    <step>B</step>
                    <alter>-1</alter>
                    <octave>4</octave>
                </pitch>
                <duration>12</duration>
                <voice>1</voice>
                <type>quarter</type>
                <stem default-y="-60">down</stem>
                <staff>1</staff>
            </note>
            <note default-x="103">
                <rest/>
                <duration>3</duration>
                <voice>1</voice>
                <type>16th</type>
                <staff>1</staff>
            </note>
            <note default-x="128">
                <pitch>
                    <step>D</step>
                    <octave>5</octave>
                </pitch>
                <duration>3</duration>
                <voice>1</voice>
                <type>16th</type>
                <stem default-y="-56">down</stem>
                <staff>1</staff>
                <beam number="1">begin</beam>
                <beam number="2">begin</beam>
            </note>
            <note default-x="152">
                <pitch>
                    <step>D</step>
                    <octave>5</octave>
                </pitch>
                <duration>3</duration>
                <voice>1</voice>
                <type>16th</type>
                <stem default-y="-47">down</stem>
                <staff>1</staff>
                <beam number="1">continue</beam>
                <beam number="2">continue</beam>
            </note>
            <note default-x="174">
                <pitch>
                    <step>D</step>
                    <octave>5</octave>
                </pitch>
                <duration>3</duration>
                <voice>1</voice>
                <type>16th</type>
                <stem default-y="-56">down</stem>
                <staff>1</staff>
                <beam number="1">end</beam>
                <beam number="2">end</beam>
            </note>
            <backup>
                <duration>24</duration>
            </backup>
            <note default-x="21">
                <pitch>
                    <step>D</step>
                    <octave>5</octave>
                </pitch>
                <duration>3</duration>
                <voice>2</voice>
                <type>16th</type>
                <stem default-y="-52">down</stem>
                <staff>2</staff>
                <beam number="1">begin</beam>
                <beam number="2">forward hook</beam>
            </note>
            <note default-x="46">
                <pitch>
                    <step>G</step>
                    <octave>5</octave>
                </pitch>
                <duration>6</duration>
                <voice>2</voice>
                <type>eighth</type>
                <stem default-y="-51">down</stem>
                <staff>2</staff>
                <beam number="1">continue</beam>
            </note>
            <note default-x="81">
                <pitch>
                    <step>F</step>
                    <octave>5</octave>
                </pitch>
                <duration>3</duration>
                <voice>2</voice>
                <type>16th</type>
                <stem default-y="-49">down</stem>
                <staff>2</staff>
                <beam number="1">end</beam>
                <beam number="3">backward hook</beam>
            </note>
            <note default-x="106">
                <pitch>
                    <step>B</step>
                    <alter>-1</alter>
                    <octave>4</octave>
                </pitch>
                <duration>12</duration>
                <voice>2</voice>
                <type>quarter</type>
                <stem default-y="-59">down</stem>
                <staff>2</staff>
            </note>
        </measure>
        <measure width="251" number="14">
            <print new-system="yes">
                <system-layout>
                    <system-margins>
                        <left-margin>44</left-margin>
                        <right-margin>56</right-margin>
                    </system-margins>
                    <system-distance>121</system-distance>
                </system-layout>
                <staff-layout number="2">
                    <staff-distance>77</staff-distance>
                </staff-layout>
            </print>
            <note default-x="71">
                <pitch>
                    <step>D</step>
                    <octave>5</octave>
                </pitch>
                <duration>3</duration>
                <voice>1</voice>
                <type>16th</type>
                <stem default-y="-60">down</stem>
                <staff>1</staff>
                <beam number="1">begin</beam>
                <beam number="2">begin</beam>
            </note>
            <note default-x="94">
                <pitch>
                    <step>C</step>
                    <octave>5</octave>
                </pitch>
                <duration>3</duration>
                <voice>1</voice>
                <type>16th</type>
                <stem default-y="-51">down</stem>
                <staff>1</staff>
                <beam number="1">continue</beam>
                <beam number="2">continue</beam>
            </note>
            <note default-x="115">
                <pitch>
                    <step>C</step>
                    <octave>5</octave>
                </pitch>
                <duration>3</duration>
                <voice>1</voice>
                <type>16th</type>
                <stem default-y="-51">down</stem>
                <staff>1</staff>
                <beam number="1">continue</beam>
                <beam number="2">continue</beam>
            </note>
            <note default-x="135">
                <pitch>
                    <step>C</step>
                    <octave>5</octave>
                </pitch>
                <duration>3</duration>
                <voice>1</voice>
                <type>16th</type>
                <stem default-y="-54">down</stem>
                <staff>1</staff>
                <beam number="1">end</beam>
                <beam number="2">end</beam>
            </note>
            <note default-x="159">
                <pitch>
                    <step>E</step>
                    <alter>-1</alter>
                    <octave>5</octave>
                </pitch>
                <duration>3</duration>
                <voice>1</voice>
                <type>16th</type>
                <stem default-y="-55">down</stem>
                <staff>1</staff>
                <beam number="1">begin</beam>
                <beam number="2">begin</beam>
            </note>
            <note default-x="181">
                <pitch>
                    <step>E</step>
                    <alter>-1</alter>
                    <octave>5</octave>
                </pitch>
                <duration>3</duration>
                <voice>1</voice>
                <type>16th</type>
                <stem default-y="-47">down</stem>
                <staff>1</staff>
                <beam number="1">continue</beam>
                <beam number="2">continue</beam>
            </note>
            <note default-x="204">
                <pitch>
                    <step>D</step>
                    <octave>5</octave>
                </pitch>
                <duration>3</duration>
                <voice>1</voice>
                <type>16th</type>
                <stem default-y="-48">down</stem>
                <staff>1</staff>
                <beam number="1">continue</beam>
                <beam number="2">continue</beam>
            </note>
            <note default-x="223">
                <pitch>
                    <step>C</step>
                    <octave>5</octave>
                </pitch>
                <duration>3</duration>
                <voice>1</voice>
                <type>16th</type>
                <stem default-y="-58">down</stem>
                <staff>1</staff>
                <beam number="1">end</beam>
                <beam number="2">end</beam>
            </note>
            <backup>
                <duration>24</duration>
            </backup>
            <note default-x="72">
                <pitch>
                    <step>F</step>
                    <octave>5</octave>
                </pitch>
                <duration>3</duration>
                <voice>2</voice>
                <type>16th</type>
                <stem default-y="-41">down</stem>
                <staff>2</staff>
                <beam number="1">begin</beam>
                <beam number="2">begin</beam>
            </note>
            <note default-x="95">
                <pitch>
                    <step>G</step>
                    <octave>5</octave>
                </pitch>
                <duration>3</duration>
                <voice>2</voice>
                <type>16th</type>
                <stem default-y="-33">down</stem>
                <staff>2</staff>
                <beam number="1">continue</beam>
                <beam number="2">continue</beam>
            </note>
            <note default-x="116">
                <pitch>
                    <step>A</step>
                    <octave>5</octave>
                </pitch>
                <duration>3</duration>
                <voice>2</voice>
                <type>16th</type>
                <stem default-y="-33">down</stem>
                <staff>2</staff>
                <beam number="1">continue</beam>
                <beam number="2">continue</beam>
            </note>
            <note default-x="136">
                <pitch>
                    <step>F</step>
                    <octave>5</octave>
                </pitch>
                <duration>3</duration>
                <voice>2</voice>
                <type>16th</type>
                <stem default-y="-41">down</stem>
                <staff>2</staff>
                <beam number="1">end</beam>
                <beam number="2">end</beam>
            </note>
            <note default-x="159">
                <pitch>
                    <step>F</step>
                    <octave>5</octave>
                </pitch>
                <duration>3</duration>
                <voice>2</voice>
                <type>16th</type>
                <stem default-y="-44">down</stem>
                <staff>2</staff>
                <beam number="1">begin</beam>
                <beam number="2">begin</beam>
            </note>
            <note default-x="182">
                <pitch>
                    <step>G</step>
                    <octave>5</octave>
                </pitch>
                <duration>3</duration>
                <voice>2</voice>
                <type>16th</type>
                <stem default-y="-34">down</stem>
                <staff>2</staff>
                <beam number="1">continue</beam>
                <beam number="2">continue</beam>
            </note>
            <note default-x="205">
                <pitch>
                    <step>A</step>
                    <octave>5</octave>
                </pitch>
                <duration>3</duration>
                <voice>2</voice>
                <type>16th</type>
                <stem default-y="-34">down</stem>
                <staff>2</staff>
                <beam number="1">continue</beam>
                <beam number="2">continue</beam>
            </note>
            <note default-x="225">
                <pitch>
                    <step>F</step>
                    <octave>5</octave>
                </pitch>
                <duration>3</duration>
                <voice>2</voice>
                <type>16th</type>
                <stem default-y="-43">down</stem>
                <staff>2</staff>
                <beam number="1">end</beam>
                <beam number="2">end</beam>
            </note>
        </measure>
        <measure width="176" number="15">
            <note default-x="18">
                <pitch>
                    <step>D</step>
                    <octave>5</octave>
                </pitch>
                <duration>12</duration>
                <voice>1</voice>
                <type>quarter</type>
                <stem default-y="-50">down</stem>
                <staff>1</staff>
            </note>
            <note default-x="96">
                <pitch>
                    <step>B</step>
                    <alter>-1</alter>
                    <octave>4</octave>
                </pitch>
                <duration>4</duration>
                <tie type="start"/>
                <voice>1</voice>
                <type>eighth</type>
                <time-modification>
                    <actual-notes>3</actual-notes>
                    <normal-notes>2</normal-notes>
                </time-modification>
                <stem default-y="-62">down</stem>
                <staff>1</staff>
                <beam number="1">begin</beam>
                <notations>
                    <tuplet placement="below" type="start" number="1"/>
                    <tied orientation="under" default-y="-79" default-x="14" bezier-y="-89" bezier-x="16" type="start"/>
                </notations>
            </note>
            <note default-x="121">
                <pitch>
                    <step>B</step>
                    <alter>-1</alter>
                    <octave>4</octave>
                </pitch>
                <duration>4</duration>
                <tie type="stop"/>
                <voice>1</voice>
                <type>eighth</type>
                <time-modification>
                    <actual-notes>3</actual-notes>
                    <normal-notes>2</normal-notes>
                </time-modification>
                <stem default-y="-61">down</stem>
                <staff>1</staff>
                <beam number="1">continue</beam>
                <notations>
                    <tied default-y="-80" default-x="9" bezier-y="-89" bezier-x="6" type="stop"/>
                </notations>
            </note>
            <note default-x="146">
                <pitch>
                    <step>C</step>
                    <octave>5</octave>
                </pitch>
                <duration>4</duration>
                <voice>1</voice>
                <type>eighth</type>
                <time-modification>
                    <actual-notes>3</actual-notes>
                    <normal-notes>2</normal-notes>
                </time-modification>
                <stem default-y="-59">down</stem>
                <staff>1</staff>
                <beam number="1">end</beam>
                <notations>
                    <tuplet type="stop" number="1"/>
                </notations>
            </note>
            <backup>
                <duration>24</duration>
            </backup>
            <note default-x="18">
                <pitch>
                    <step>B</step>
                    <alter>-1</alter>
                    <octave>5</octave>
                </pitch>
                <duration>3</duration>
                <voice>2</voice>
                <type>16th</type>
                <stem default-y="-35">down</stem>
                <staff>2</staff>
                <beam number="1">begin</beam>
                <beam number="2">forward hook</beam>
            </note>
            <note default-x="42">
                <pitch>
                    <step>A</step>
                    <octave>5</octave>
                </pitch>
                <duration>6</duration>
                <voice>2</voice>
                <type>eighth</type>
                <stem default-y="-34">down</stem>
                <staff>2</staff>
                <beam number="1">continue</beam>
            </note>
            <note default-x="74">
                <pitch>
                    <step>A</step>
                    <alter>-1</alter>
                    <octave>5</octave>
                </pitch>
                <duration>3</duration>
                <voice>2</voice>
                <type>16th</type>
                <accidental>flat</accidental>
                <stem default-y="-35">down</stem>
                <staff>2</staff>
                <beam number="1">end</beam>
                <beam number="3">backward hook</beam>
            </note>
            <note default-x="96">
                <pitch>
                    <step>G</step>
                    <octave>5</octave>
                </pitch>
                <duration>12</duration>
                <voice>2</voice>
                <type>quarter</type>
                <stem default-y="-36">down</stem>
                <staff>2</staff>
            </note>
        </measure>
        <measure width="175" number="16">
            <note default-x="18">
                <pitch>
                    <step>D</step>
                    <octave>5</octave>
                </pitch>
                <duration>9</duration>
                <voice>1</voice>
                <type>eighth</type>
                <dot/>
                <stem default-y="-55">down</stem>
                <staff>1</staff>
                <beam number="1">begin</beam>
            </note>
            <note default-x="68">
                <pitch>
                    <step>C</step>
                    <octave>5</octave>
                </pitch>
                <duration>3</duration>
                <voice>1</voice>
                <type>16th</type>
                <stem default-y="-57">down</stem>
                <staff>1</staff>
                <beam number="1">end</beam>
                <beam number="2">backward hook</beam>
            </note>
            <note default-x="93">
                <pitch>
                    <step>C</step>
                    <octave>5</octave>
                </pitch>
                <duration>4</duration>
                <voice>1</voice>
                <type>eighth</type>
                <time-modification>
                    <actual-notes>3</actual-notes>
                    <normal-notes>2</normal-notes>
                </time-modification>
                <stem default-y="-62">down</stem>
                <staff>1</staff>
                <beam number="1">begin</beam>
                <notations>
                    <tuplet placement="below" type="start" number="1"/>
                    <slur placement="below" default-y="-78" default-x="16" bezier-y="-88" bezier-x="19" type="start" number="1"/>
                </notations>
            </note>
            <note default-x="120">
                <pitch>
                    <step>B</step>
                    <alter>-1</alter>
                    <octave>4</octave>
                </pitch>
                <duration>4</duration>
                <voice>1</voice>
                <type>eighth</type>
                <time-modification>
                    <actual-notes>3</actual-notes>
                    <normal-notes>2</normal-notes>
                </time-modification>
                <stem default-y="-62">down</stem>
                <staff>1</staff>
                <beam number="1">continue</beam>
                <notations>
                    <slur default-y="-79" default-x="9" bezier-y="-88" bezier-x="6" type="stop" number="1"/>
                </notations>
            </note>
            <note default-x="146">
                <pitch>
                    <step>A</step>
                    <octave>4</octave>
                </pitch>
                <duration>4</duration>
                <voice>1</voice>
                <type>eighth</type>
                <time-modification>
                    <actual-notes>3</actual-notes>
                    <normal-notes>2</normal-notes>
                </time-modification>
                <stem default-y="-63">down</stem>
                <staff>1</staff>
                <beam number="1">end</beam>
                <notations>
                    <tuplet type="stop" number="1"/>
                </notations>
            </note>
            <backup>
                <duration>24</duration>
            </backup>
            <note default-x="18">
                <pitch>
                    <step>B</step>
                    <alter>-1</alter>
                    <octave>5</octave>
                </pitch>
                <duration>6</duration>
                <voice>2</voice>
                <type>eighth</type>
                <stem default-y="-45">down</stem>
                <staff>2</staff>
                <beam number="1">begin</beam>
            </note>
            <note default-x="49">
                <pitch>
                    <step>D</step>
                    <octave>5</octave>
                </pitch>
                <duration>6</duration>
                <voice>2</voice>
                <type>eighth</type>
                <stem default-y="-41">down</stem>
                <staff>2</staff>
                <beam number="1">end</beam>
            </note>
            <note default-x="94">
                <pitch>
                    <step>F</step>
                    <alter>1</alter>
                    <octave>5</octave>
                </pitch>
                <duration>6</duration>
                <voice>2</voice>
                <type>eighth</type>
                <accidental>sharp</accidental>
                <stem default-y="-46">down</stem>
                <staff>2</staff>
                <beam number="1">begin</beam>
            </note>
            <note default-x="134">
                <pitch>
                    <step>D</step>
                    <octave>5</octave>
                </pitch>
                <duration>6</duration>
                <voice>2</voice>
                <type>eighth</type>
                <stem default-y="-47">down</stem>
                <staff>2</staff>
                <beam number="1">end</beam>
            </note>
        </measure>
        <measure width="154" number="17">
            <note default-x="16">
                <pitch>
                    <step>B</step>
                    <alter>-1</alter>
                    <octave>4</octave>
                </pitch>
                <duration>12</duration>
                <voice>1</voice>
                <type>quarter</type>
                <stem default-y="-58">down</stem>
                <staff>1</staff>
            </note>
            <note default-x="67">
                <pitch>
                    <step>G</step>
                    <octave>4</octave>
                </pitch>
                <duration>4</duration>
                <voice>1</voice>
                <type>eighth</type>
                <time-modification>
                    <actual-notes>3</actual-notes>
                    <normal-notes>2</normal-notes>
                </time-modification>
                <stem default-y="19">up</stem>
                <staff>1</staff>
                <beam number="1">begin</beam>
                <notations>
                    <tuplet placement="above" type="start" number="1"/>
                </notations>
            </note>
            <note default-x="95">
                <pitch>
                    <step>G</step>
                    <octave>4</octave>
                </pitch>
                <duration>4</duration>
                <tie type="start"/>
                <tie type="start"/>
                <voice>1</voice>
                <type>eighth</type>
                <time-modification>
                    <actual-notes>3</actual-notes>
                    <normal-notes>2</normal-notes>
                </time-modification>
                <stem default-y="19">up</stem>
                <staff>1</staff>
                <beam number="1">continue</beam>
                <notations>
                    <tied orientation="over" default-y="44" default-x="4" bezier-y="52" bezier-x="8" type="start"/>
                    <tied orientation="over" default-y="44" default-x="4" bezier-y="52" bezier-x="8" type="start"/>
                </notations>
            </note>
            <note default-x="119">
                <pitch>
                    <step>B</step>
                    <alter>-1</alter>
                    <octave>4</octave>
                </pitch>
                <duration>4</duration>
                <voice>1</voice>
                <type>eighth</type>
                <time-modification>
                    <actual-notes>3</actual-notes>
                    <normal-notes>2</normal-notes>
                </time-modification>
                <stem default-y="21">up</stem>
                <staff>1</staff>
                <beam number="1">end</beam>
                <notations>
                    <tuplet type="stop" number="1"/>
                </notations>
            </note>
            <backup>
                <duration>24</duration>
            </backup>
            <note default-x="17">
                <pitch>
                    <step>G</step>
                    <octave>5</octave>
                </pitch>
                <duration>12</duration>
                <voice>2</voice>
                <type>quarter</type>
                <stem default-y="-34">down</stem>
                <staff>2</staff>
            </note>
            <note default-x="69">
                <pitch>
                    <step>B</step>
                    <alter>-1</alter>
                    <octave>4</octave>
                </pitch>
                <duration>4</duration>
                <voice>2</voice>
                <type>eighth</type>
                <time-modification>
                    <actual-notes>3</actual-notes>
                    <normal-notes>2</normal-notes>
                </time-modification>
                <stem default-y="-62">down</stem>
                <staff>2</staff>
                <beam number="1">begin</beam>
                <notations>
                    <tuplet placement="below" type="start" number="1"/>
                </notations>
            </note>
            <note default-x="97">
                <pitch>
                    <step>B</step>
                    <alter>-1</alter>
                    <octave>4</octave>
                </pitch>
                <duration>4</duration>
                <voice>2</voice>
                <type>eighth</type>
                <time-modification>
                    <actual-notes>3</actual-notes>
                    <normal-notes>2</normal-notes>
                </time-modification>
                <stem default-y="-61">down</stem>
                <staff>2</staff>
                <beam number="1">continue</beam>
            </note>
            <note default-x="122">
                <pitch>
                    <step>D</step>
                    <octave>5</octave>
                </pitch>
                <duration>4</duration>
                <voice>2</voice>
                <type>eighth</type>
                <time-modification>
                    <actual-notes>3</actual-notes>
                    <normal-notes>2</normal-notes>
                </time-modification>
                <stem default-y="-61">down</stem>
                <staff>2</staff>
                <beam number="1">end</beam>
                <notations>
                    <tuplet type="stop" number="1"/>
                </notations>
            </note>
        </measure>
        <measure width="174" number="18">
            <note default-x="16">
                <pitch>
                    <step>D</step>
                    <octave>5</octave>
                </pitch>
                <duration>6</duration>
                <voice>1</voice>
                <type>eighth</type>
                <stem default-y="-55">down</stem>
                <staff>1</staff>
                <beam number="1">begin</beam>
            </note>
            <note default-x="51">
                <pitch>
                    <step>C</step>
                    <octave>5</octave>
                </pitch>
                <duration>6</duration>
                <voice>1</voice>
                <type>eighth</type>
                <stem default-y="-56">down</stem>
                <staff>1</staff>
                <beam number="1">end</beam>
            </note>
            <forward>
                <duration>12</duration>
                <voice>1</voice>
                <staff>1</staff>
            </forward>
            <note default-x="81">
                <pitch>
                    <step>A</step>
                    <octave>4</octave>
                </pitch>
                <duration>3</duration>
                <voice>1</voice>
                <type>16th</type>
                <stem default-y="14">up</stem>
                <staff>1</staff>
                <beam number="1">begin</beam>
                <beam number="2">forward hook</beam>
            </note>
            <note default-x="102">
                <pitch>
                    <step>G</step>
                    <octave>4</octave>
                </pitch>
                <duration>6</duration>
                <voice>1</voice>
                <type>eighth</type>
                <stem default-y="14">up</stem>
                <staff>1</staff>
                <beam number="1">continue</beam>
            </note>
            <note default-x="143">
                <pitch>
                    <step>F</step>
                    <octave>4</octave>
                </pitch>
                <duration>3</duration>
                <voice>1</voice>
                <type>16th</type>
                <stem default-y="11">up</stem>
                <staff>1</staff>
                <beam number="1">end</beam>
                <beam number="3">backward hook</beam>
            </note>
            <backup>
                <duration>36</duration>
            </backup>
            <note default-x="18">
                <pitch>
                    <step>B</step>
                    <alter>-1</alter>
                    <octave>5</octave>
                </pitch>
                <duration>6</duration>
                <voice>2</voice>
                <type>eighth</type>
                <stem default-y="-51">down</stem>
                <staff>2</staff>
                <beam number="1">begin</beam>
            </note>
            <note default-x="51">
                <pitch>
                    <step>D</step>
                    <octave>5</octave>
                </pitch>
                <duration>6</duration>
                <voice>2</voice>
                <type>eighth</type>
                <stem default-y="-51">down</stem>
                <staff>2</staff>
                <beam number="1">end</beam>
            </note>
            <note default-x="71">
                <pitch>
                    <step>E</step>
                    <alter>-1</alter>
                    <octave>5</octave>
                </pitch>
                <duration>12</duration>
                <voice>2</voice>
                <type>quarter</type>
                <stem default-y="-47">down</stem>
                <staff>2</staff>
                <beam number="1">continue</beam>
            </note>
            <note default-x="83">
                <pitch>
                    <step>F</step>
                    <octave>5</octave>
                </pitch>
                <duration>6</duration>
                <voice>2</voice>
                <type>eighth</type>
                <stem default-y="-47">down</stem>
                <staff>2</staff>
                <beam number="1">begin</beam>
            </note>
            <note default-x="126">
                <pitch>
                    <step>D</step>
                    <octave>5</octave>
                </pitch>
                <duration>6</duration>
                <voice>2</voice>
                <type>eighth</type>
                <stem default-y="-48">down</stem>
                <staff>2</staff>
                <beam number="1">end</beam>
            </note>
            <backup>
                <duration>36</duration>
            </backup>
            <forward>
                <duration>33</duration>
                <voice>3</voice>
                <staff>1</staff>
            </forward>
            <note default-x="143">
                <pitch>
                    <step>F</step>
                    <octave>4</octave>
                </pitch>
                <duration>3</duration>
                <voice>3</voice>
                <type>16th</type>
                <stem default-y="-21">up</stem>
                <staff>1</staff>
                <beam number="1">backward hook</beam>
            </note>
        </measure>
        <measure width="135" number="19">
            <barline location="right">
                <bar-style>light-light</bar-style>
            </barline>
            <note default-x="15">
                <pitch>
                    <step>G</step>
                    <octave>4</octave>
                </pitch>
                <duration>12</duration>
                <voice>1</voice>
                <type>quarter</type>
                <stem default-y="11">up</stem>
                <staff>1</staff>
            </note>
            <note default-x="92">
                <pitch>
                    <step>G</step>
                    <octave>4</octave>
                </pitch>
                <duration>3</duration>
                <voice>1</voice>
                <type>16th</type>
                <stem default-y="7">up</stem>
                <staff>1</staff>
            </note>
            <note default-x="112">
                <rest/>
                <duration>6</duration>
                <voice>1</voice>
                <type>eighth</type>
                <staff>2</staff>
            </note>
            <forward>
                <duration>27</duration>
                <voice>1</voice>
                <staff>2</staff>
            </forward>
            <backup>
                <duration>21</duration>
            </backup>
            <note default-x="17">
                <pitch>
                    <step>B</step>
                    <alter>-1</alter>
                    <octave>4</octave>
                </pitch>
                <duration>3</duration>
                <voice>2</voice>
                <type>16th</type>
                <stem default-y="-62">down</stem>
                <staff>2</staff>
                <beam number="1">begin</beam>
                <beam number="2">forward hook</beam>
            </note>
            <note default-x="41">
                <pitch>
                    <step>C</step>
                    <octave>5</octave>
                </pitch>
                <duration>6</duration>
                <voice>2</voice>
                <type>eighth</type>
                <stem default-y="-61">down</stem>
                <staff>2</staff>
                <beam number="1">continue</beam>
            </note>
            <note default-x="69">
                <pitch>
                    <step>D</step>
                    <octave>5</octave>
                </pitch>
                <duration>3</duration>
                <voice>2</voice>
                <type>16th</type>
                <stem default-y="-59">down</stem>
                <staff>2</staff>
                <beam number="1">end</beam>
                <beam number="3">backward hook</beam>
            </note>
            <note default-x="94">
                <pitch>
                    <step>B</step>
                    <alter>-1</alter>
                    <octave>4</octave>
                </pitch>
                <duration>6</duration>
                <voice>2</voice>
                <type>eighth</type>
                <stem default-y="-64">down</stem>
                <staff>2</staff>
            </note>
            <forward>
                <duration>30</duration>
                <voice>2</voice>
                <staff>2</staff>
            </forward>
        </measure>
    </part>
</score-partwise>
