<?xml version="1.0" encoding="UTF-8" standalone="no"?>
<!DOCTYPE score-partwise PUBLIC "-//Recordare//DTD MusicXML 2.0 Partwise//EN" "http://www.musicxml.org/dtds/partwise.dtd">
<score-partwise version="2.0">
  <work>
    <work-number>BWV 988</work-number>
    <work-title>Aria con 30 Variazioni</work-title>
  </work>
  <movement-number>2</movement-number>
  <movement-title>Variatio 1. a 1 Clav.</movement-title>
  <identification>
    <creator type="composer">Johann Sebastian Bach</creator>
    <rights>Creative Commons Attribution-ShareAlike 3.0</rights>
    <encoding>
      <encoder>Mario Lang</encoder>
      <encoding-date>2009-03-19</encoding-date>
      <software>GNU Emacs</software>
    </encoding>
    <source>Mutopia Project</source>
  </identification>
  <part-list>
    <score-part id="P1">
      <part-name>Clavier</part-name>
      <score-instrument id="P1-I1">
        <instrument-name>Clavier</instrument-name>
      </score-instrument>
      <midi-instrument id="P1-I1">
        <midi-channel>1</midi-channel>
        <midi-program>1</midi-program>
      </midi-instrument>
    </score-part>
  </part-list>
  <part id="P1">
    <measure number="1">
      <attributes>
        <divisions>4</divisions>
        <key><fifths>1</fifths><mode>major</mode></key>
        <time><beats>3</beats><beat-type>4</beat-type></time>
        <staves>2</staves>
        <clef number="1"><sign>G</sign><line>2</line></clef>
        <clef number="2"><sign>F</sign><line>4</line></clef>
      </attributes>
      <sound tempo="62"/>
      <!-- g'16 fis'16 g'8_~ g'16 d'16 e'16 fis'16 g'16 a'16 b'16 cis''16 -->
      <note>
        <pitch><step>G</step><octave>4</octave></pitch>
        <duration>1</duration>
        <voice>1</voice>
        <type>16th</type>
        <staff>1</staff>
      </note>
      <note>
        <pitch><step>F</step><alter>1</alter><octave>4</octave></pitch>
        <duration>1</duration>
        <voice>1</voice>
        <type>16th</type>
        <staff>1</staff>
      </note>
      <note>
        <pitch><step>G</step><octave>4</octave></pitch>
        <duration>2</duration>
        <tie type="start"/>
        <voice>1</voice>
        <type>eighth</type>
        <staff>1</staff>
        <notations><tied type="start"/></notations>
      </note>
      <note>
        <pitch><step>G</step><octave>4</octave></pitch>
        <duration>1</duration>
        <tie type="stop"/>
        <voice>1</voice>
        <type>16th</type>
        <staff>1</staff>
        <notations><tied type="stop"/></notations>
      </note>
      <note>
        <pitch><step>D</step><octave>4</octave></pitch>
        <duration>1</duration>
        <voice>1</voice>
        <type>16th</type>
        <staff>1</staff>
      </note>
      <note>
        <pitch><step>E</step><octave>4</octave></pitch>
        <duration>1</duration>
        <voice>1</voice>
        <type>16th</type>
        <staff>1</staff>
      </note>
      <note>
        <pitch><step>F</step><alter>1</alter><octave>4</octave></pitch>
        <duration>1</duration>
        <voice>1</voice>
        <type>16th</type>
        <staff>1</staff>
      </note>
      <note>
        <pitch><step>G</step><octave>4</octave></pitch>
        <duration>1</duration>
        <voice>1</voice>
        <type>16th</type>
        <staff>1</staff>
      </note>
      <note>
        <pitch><step>A</step><octave>4</octave></pitch>
        <duration>1</duration>
        <voice>1</voice>
        <type>16th</type>
        <staff>1</staff>
      </note>
      <note>
        <pitch><step>B</step><octave>4</octave></pitch>
        <duration>1</duration>
        <voice>1</voice>
        <type>16th</type>
        <staff>1</staff>
      </note>
      <note>
        <pitch><step>C</step><alter>1</alter><octave>5</octave></pitch>
        <duration>1</duration>
        <voice>1</voice>
        <type>16th</type>
        <accidental>sharp</accidental>
        <staff>1</staff>
      </note>
      <backup><duration>12</duration></backup>
      <!-- g,8[ b16 a16 b8 g8 g,8 g8] -->
      <note>
        <pitch><step>G</step><octave>2</octave></pitch>
        <duration>2</duration>
        <voice>2</voice>
        <type>eighth</type>
        <staff>2</staff>
      </note>
      <note>
        <pitch><step>B</step><octave>3</octave></pitch>
        <duration>1</duration>
        <voice>2</voice>
        <type>16th</type>
        <staff>2</staff>
      </note>
      <note>
        <pitch><step>A</step><octave>3</octave></pitch>
        <duration>1</duration>
        <voice>2</voice>
        <type>16th</type>
        <staff>2</staff>
      </note>
      <note>
        <pitch><step>B</step><octave>3</octave></pitch>
        <duration>2</duration>
        <voice>2</voice>
        <type>eighth</type>
        <staff>2</staff>
      </note>
      <note>
        <pitch><step>G</step><octave>3</octave></pitch>
        <duration>2</duration>
        <voice>2</voice>
        <type>eighth</type>
        <staff>2</staff>
      </note>
      <note>
        <pitch><step>G</step><octave>2</octave></pitch>
        <duration>2</duration>
        <voice>2</voice>
        <type>eighth</type>
        <staff>2</staff>
      </note>
      <note>
        <pitch><step>G</step><octave>3</octave></pitch>
        <duration>2</duration>
        <voice>2</voice>
        <type>eighth</type>
        <staff>2</staff>
      </note>
    </measure>
    <measure number="2">
      <!-- d''16 cis''16 d''8^~ d''16 a'16 b'16 cis''16 d''16 e''16 fis''16 d''16 -->
      <note>
        <pitch><step>D</step><octave>5</octave></pitch>
        <duration>1</duration>
        <voice>1</voice>
        <type>16th</type>
        <staff>1</staff>
      </note>
      <note>
        <pitch><step>C</step><alter>1</alter><octave>5</octave>
        </pitch>
        <duration>1</duration>
        <voice>1</voice>
        <type>16th</type>
        <accidental>sharp</accidental>
        <staff>1</staff>
      </note>
      <note>
        <pitch><step>D</step><octave>5</octave></pitch>
        <duration>2</duration>
        <tie type="start"/>
        <voice>1</voice>
        <type>eighth</type>
        <staff>1</staff>
        <notations><tied type="start"/></notations>
      </note>
      <note>
        <pitch><step>D</step><octave>5</octave></pitch>
        <duration>1</duration>
        <tie type="stop"/>
        <voice>1</voice>
        <type>16th</type>
        <staff>1</staff>
        <notations><tied type="stop"/></notations>
      </note>
      <note>
        <pitch><step>A</step><octave>4</octave></pitch>
        <duration>1</duration>
        <voice>1</voice>
        <type>16th</type>
        <staff>1</staff>
      </note>
      <note>
        <pitch><step>B</step><octave>4</octave></pitch>
        <duration>1</duration>
        <voice>1</voice>
        <type>16th</type>
        <staff>1</staff>
      </note>
      <note>
        <pitch><step>C</step><alter>1</alter><octave>5</octave></pitch>
        <duration>1</duration>
        <voice>1</voice>
        <type>16th</type>
        <staff>1</staff>
      </note>
      <note>
        <pitch><step>D</step><octave>5</octave></pitch>
        <duration>1</duration>
        <voice>1</voice>
        <type>16th</type>
        <staff>1</staff>
      </note>
      <note>
        <pitch><step>E</step><octave>5</octave></pitch>
        <duration>1</duration>
        <voice>1</voice>
        <type>16th</type>
        <staff>1</staff>
      </note>
      <note>
        <pitch><step>F</step><alter>1</alter><octave>5</octave></pitch>
        <duration>1</duration>
        <voice>1</voice>
        <type>16th</type>
        <staff>1</staff>
      </note>
      <note>
        <pitch><step>D</step><octave>5</octave></pitch>
        <duration>1</duration>
        <voice>1</voice>
        <type>16th</type>
        <staff>1</staff>
      </note>
      <backup><duration>12</duration></backup>
      <!-- fis,8[ fis16 e16 fis8 d8 fis,8 d8] -->
      <note>
        <pitch><step>F</step><alter>1</alter><octave>2</octave>
        </pitch>
        <duration>2</duration>
        <voice>2</voice>
        <type>eighth</type>
        <staff>2</staff>
      </note>
      <note>
        <pitch><step>F</step><alter>1</alter><octave>3</octave>
        </pitch>
        <duration>1</duration>
        <voice>2</voice>
        <type>16th</type>
        <staff>2</staff>
      </note>
      <note>
        <pitch><step>E</step><octave>3</octave></pitch>
        <duration>1</duration>
        <voice>2</voice>
        <type>16th</type>
        <staff>2</staff>
      </note>
      <note>
        <pitch><step>F</step><alter>1</alter><octave>3</octave>
        </pitch>
        <duration>2</duration>
        <voice>2</voice>
        <type>eighth</type>
        <staff>2</staff>
      </note>
      <note>
        <pitch><step>D</step><octave>3</octave></pitch>
        <duration>2</duration>
        <voice>2</voice>
        <type>eighth</type>
        <staff>2</staff>
      </note>
      <note>
        <pitch><step>F</step><alter>1</alter><octave>2</octave></pitch>
        <duration>2</duration>
        <voice>2</voice>
        <type>eighth</type>
        <staff>2</staff>
      </note>
      <note>
        <pitch><step>D</step><octave>3</octave></pitch>
        <duration>2</duration>
        <voice>2</voice>
        <type>eighth</type>
        <staff>2</staff>
      </note>
    </measure>
    <measure number="3">
      <!-- g''16 fis''16 g''8^~ g''16 fis''16 e''16 d''16 cis''16 e''16 a'16 g'16 -->
      <note>
        <pitch><step>G</step><octave>5</octave></pitch>
        <duration>1</duration>
        <voice>1</voice>
        <type>16th</type>
        <staff>1</staff>
      </note>
      <note>
        <pitch><step>F</step><alter>1</alter><octave>5</octave></pitch>
        <duration>1</duration>
        <voice>1</voice>
        <type>16th</type>
        <staff>1</staff>
      </note>
      <note>
        <pitch><step>G</step><octave>5</octave></pitch>
        <duration>2</duration>
        <tie type="start"/>
        <voice>1</voice>
        <type>eighth</type>
        <staff>1</staff>
        <notations><tied type="start"/></notations>
      </note>
      <note>
        <pitch><step>G</step><octave>5</octave></pitch>
        <duration>1</duration>
        <tie type="stop"/>
        <voice>1</voice>
        <type>16th</type>
        <staff>1</staff>
        <notations><tied type="stop"/></notations>
      </note>
      <note>
        <pitch><step>F</step><alter>1</alter><octave>5</octave></pitch>
        <duration>1</duration>
        <voice>1</voice>
        <type>16th</type>
        <staff>1</staff>
      </note>
      <note>
        <pitch><step>E</step><octave>5</octave></pitch>
        <duration>1</duration>
        <voice>1</voice>
        <type>16th</type>
        <staff>1</staff>
      </note>
      <note>
        <pitch><step>D</step><octave>5</octave></pitch>
        <duration>1</duration>
        <voice>1</voice>
        <type>16th</type>
        <staff>1</staff>
      </note>
      <note>
        <pitch><step>C</step><alter>1</alter><octave>5</octave></pitch>
        <duration>1</duration>
        <voice>1</voice>
        <type>16th</type>
        <accidental>sharp</accidental>
        <staff>1</staff>
      </note>
      <note>
        <pitch><step>E</step><octave>5</octave></pitch>
        <duration>1</duration>
        <voice>1</voice>
        <type>16th</type>
        <staff>1</staff>
      </note>
      <note>
        <pitch><step>A</step><octave>4</octave></pitch>
        <duration>1</duration>
        <voice>1</voice>
        <type>16th</type>
        <staff>1</staff>
      </note>
      <note>
        <pitch><step>G</step><octave>4</octave></pitch>
        <duration>1</duration>
        <voice>1</voice>
        <type>16th</type>
        <staff>1</staff>
      </note>
      <backup><duration>12</duration></backup>
      <!-- e,8[ e16 d16 e8 g8 a,8 cis8'] -->
      <note>
        <pitch><step>E</step><octave>2</octave></pitch>
        <duration>2</duration>
        <voice>2</voice>
        <type>eighth</type>
        <staff>2</staff>
      </note>
      <note>
        <pitch><step>E</step><octave>3</octave></pitch>
        <duration>1</duration>
        <voice>2</voice>
        <type>16th</type>
        <staff>2</staff>
      </note>
      <note>
        <pitch><step>D</step><octave>3</octave></pitch>
        <duration>1</duration>
        <voice>2</voice>
        <type>16th</type>
        <staff>2</staff>
      </note>
      <note>
        <pitch><step>E</step><octave>3</octave></pitch>
        <duration>2</duration>
        <voice>2</voice>
        <type>eighth</type>
        <staff>2</staff>
      </note>
      <note>
        <pitch><step>G</step><octave>3</octave></pitch>
        <duration>2</duration>
        <voice>2</voice>
        <type>eighth</type>
        <staff>2</staff>
      </note>
      <note>
        <pitch><step>A</step><octave>2</octave></pitch>
        <duration>2</duration>
        <voice>2</voice>
        <type>eighth</type>
        <staff>2</staff>
      </note>
      <note>
        <pitch><step>C</step><alter>1</alter><octave>4</octave></pitch>
        <duration>2</duration>
        <voice>2</voice>
        <type>eighth</type>
        <accidental>sharp</accidental>
        <staff>2</staff>
      </note>
    </measure>
    <measure number="4">
      <!-- fis'16 e'16 d'16 cis'16 d'16 fis'16 a16 g16 fis16 a16 d8 -->
      <note>
        <pitch><step>F</step><alter>1</alter><octave>4</octave></pitch>
        <duration>1</duration>
        <voice>1</voice>
        <type>16th</type>
        <staff>1</staff>
      </note>
      <note>
        <pitch><step>E</step><octave>4</octave></pitch>
        <duration>1</duration>
        <voice>1</voice>
        <type>16th</type>
        <staff>1</staff>
      </note>
      <note>
        <pitch><step>D</step><octave>4</octave></pitch>
        <duration>1</duration>
        <voice>1</voice>
        <type>16th</type>
        <staff>1</staff>
      </note>
      <note>
        <pitch><step>C</step><alter>1</alter><octave>4</octave></pitch>
        <duration>1</duration>
        <voice>1</voice>
        <type>16th</type>
        <accidental>sharp</accidental>
        <staff>1</staff>
      </note>
      <note>
        <pitch><step>D</step><octave>4</octave></pitch>
        <duration>1</duration>
        <voice>1</voice>
        <type>16th</type>
        <staff>1</staff>
      </note>
      <note>
        <pitch><step>F</step><alter>1</alter><octave>4</octave></pitch>
        <duration>1</duration>
        <voice>1</voice>
        <type>16th</type>
        <staff>1</staff>
      </note>
      <note>
        <pitch><step>A</step><octave>3</octave></pitch>
        <duration>1</duration>
        <voice>1</voice>
        <type>16th</type>
        <staff>1</staff>
      </note>
      <note>
        <pitch><step>G</step><octave>3</octave></pitch>
        <duration>1</duration>
        <voice>1</voice>
        <type>16th</type>
        <staff>1</staff>
      </note>
      <note>
        <pitch><step>F</step><alter>1</alter><octave>3</octave></pitch>
        <duration>1</duration>
        <voice>1</voice>
        <type>16th</type>
        <staff>1</staff>
      </note>
      <note>
        <pitch><step>A</step><octave>3</octave></pitch>
        <duration>1</duration>
        <voice>1</voice>
        <type>16th</type>
        <staff>1</staff>
      </note>
      <note>
        <pitch><step>D</step><octave>3</octave></pitch>
        <duration>2</duration>
        <voice>1</voice>
        <type>eighth</type>
        <staff>1</staff>
      </note>
      <backup><duration>12</duration></backup>
      <!-- d8[ fis16 e16 fis8 d8] d,8 r16 c16 -->
      <note>
        <pitch><step>D</step><octave>3</octave></pitch>
        <duration>2</duration>
        <voice>2</voice>
        <type>eighth</type>
        <staff>2</staff>
      </note>
      <note>
        <pitch><step>F</step><alter>1</alter><octave>3</octave></pitch>
        <duration>1</duration>
        <voice>2</voice>
        <type>16th</type>
        <staff>2</staff>
      </note>
      <note>
        <pitch><step>E</step><octave>3</octave></pitch>
        <duration>1</duration>
        <voice>2</voice>
        <type>16th</type>
        <staff>2</staff>
      </note>
      <note>
        <pitch><step>F</step><alter>1</alter><octave>3</octave></pitch>
        <duration>2</duration>
        <voice>2</voice>
        <type>eighth</type>
        <staff>2</staff>
      </note>
      <note>
        <pitch><step>D</step><octave>3</octave></pitch>
        <duration>2</duration>
        <voice>2</voice>
        <type>eighth</type>
        <staff>2</staff>
      </note>
      <note>
        <pitch><step>D</step><octave>2</octave></pitch>
        <duration>2</duration>
        <voice>2</voice>
        <type>eighth</type>
        <staff>2</staff>
      </note>
      <note>
        <rest/>
        <duration>1</duration>
        <voice>2</voice>
        <type>16th</type>
        <staff>2</staff>
      </note>
      <note>
        <pitch><step>C</step><octave>3</octave></pitch>
        <duration>1</duration>
        <voice>2</voice>
        <type>16th</type>
        <staff>2</staff>
      </note>
    </measure>
    <measure number="5">
      <!-- r8 d''16[ c''16 d''8 g'8 b8 d''8] -->
      <note>
        <rest/>
        <duration>2</duration>
        <voice>1</voice>
        <type>eighth</type>
        <staff>1</staff>
      </note>
      <note>
        <pitch><step>D</step><octave>5</octave></pitch>
        <duration>1</duration>
        <voice>1</voice>
        <type>16th</type>
        <staff>1</staff>
      </note>
      <note>
        <pitch><step>C</step><octave>5</octave></pitch>
        <duration>1</duration>
        <voice>1</voice>
        <type>16th</type>
        <staff>1</staff>
      </note>
      <note>
        <pitch><step>D</step><octave>5</octave></pitch>
        <duration>2</duration>
        <voice>1</voice>
        <type>eighth</type>
        <staff>1</staff>
      </note>
      <note>
        <pitch><step>G</step><octave>4</octave></pitch>
        <duration>2</duration>
        <voice>1</voice>
        <type>eighth</type>
        <staff>1</staff>
      </note>
      <note>
        <pitch><step>B</step><octave>3</octave></pitch>
        <duration>2</duration>
        <voice>1</voice>
        <type>eighth</type>
        <staff>1</staff>
      </note>
      <note>
        <pitch><step>D</step><octave>5</octave></pitch>
        <duration>2</duration>
        <voice>1</voice>
        <type>eighth</type>
        <staff>1</staff>
      </note>
      <backup><duration>12</duration></backup>
      <!-- b,16 a,16 b,8_~ b,16 d16 e16 fis16 g16 a16 b16 g16 -->
      <note>
        <pitch><step>B</step><octave>2</octave></pitch>
        <duration>1</duration>
        <voice>2</voice>
        <type>16th</type>
        <staff>2</staff>
      </note>
      <note>
        <pitch><step>A</step><octave>2</octave></pitch>
        <duration>1</duration>
        <voice>2</voice>
        <type>16th</type>
        <staff>2</staff>
      </note>
      <note>
        <pitch><step>B</step><octave>2</octave></pitch>
        <duration>2</duration>
        <tie type="start"/>
        <voice>2</voice>
        <type>eighth</type>
        <staff>2</staff>
        <notations><tied type="start"/></notations>
      </note>
      <note>
        <pitch><step>B</step><octave>2</octave></pitch>
        <duration>1</duration>
        <tie type="stop"/>
        <voice>2</voice>
        <type>16th</type>
        <staff>2</staff>
        <notations><tied type="stop"/></notations>
      </note>
      <note>
        <pitch><step>D</step><octave>3</octave></pitch>
        <duration>1</duration>
        <voice>2</voice>
        <type>16th</type>
        <staff>2</staff>
      </note>
      <note>
        <pitch><step>E</step><octave>3</octave></pitch>
        <duration>1</duration>
        <voice>2</voice>
        <type>16th</type>
        <staff>2</staff>
      </note>
      <note>
        <pitch><step>F</step><alter>1</alter><octave>3</octave></pitch>
        <duration>1</duration>
        <voice>2</voice>
        <type>16th</type>
        <staff>2</staff>
      </note>
      <note>
        <pitch><step>G</step><octave>3</octave></pitch>
        <duration>1</duration>
        <voice>2</voice>
        <type>16th</type>
        <staff>2</staff>
      </note>
      <note>
        <pitch><step>A</step><octave>3</octave></pitch>
        <duration>1</duration>
        <voice>2</voice>
        <type>16th</type>
        <staff>2</staff>
      </note>
      <note>
        <pitch><step>B</step><octave>3</octave></pitch>
        <duration>1</duration>
        <voice>2</voice>
        <type>16th</type>
        <staff>2</staff>
      </note>
      <note>
        <pitch><step>G</step><octave>3</octave></pitch>
        <duration>1</duration>
        <voice>2</voice>
        <type>16th</type>
        <staff>2</staff>
      </note>
    </measure>
    <measure number="6">
      <!-- r8 e''16[ d''16 e''8 a'8 c'8 e''8] -->
      <note>
        <rest/>
        <duration>2</duration>
        <voice>1</voice>
        <type>eighth</type>
        <staff>1</staff>
      </note>
      <note>
        <pitch><step>E</step><octave>5</octave></pitch>
        <duration>1</duration>
        <voice>1</voice>
        <type>16th</type>
        <staff>1</staff>
      </note>
      <note>
        <pitch><step>D</step><octave>5</octave></pitch>
        <duration>1</duration>
        <voice>1</voice>
        <type>16th</type>
        <staff>1</staff>
      </note>
      <note>
        <pitch><step>E</step><octave>5</octave></pitch>
        <duration>2</duration>
        <voice>1</voice>
        <type>eighth</type>
        <staff>1</staff>
      </note>
      <note>
        <pitch><step>A</step><octave>4</octave></pitch>
        <duration>2</duration>
        <voice>1</voice>
        <type>eighth</type>
        <staff>1</staff>
      </note>
      <note>
        <pitch><step>C</step><octave>4</octave></pitch>
        <duration>2</duration>
        <voice>1</voice>
        <type>eighth</type>
        <staff>1</staff>
      </note>
      <note>
        <pitch><step>E</step><octave>5</octave></pitch>
        <duration>2</duration>
        <voice>1</voice>
        <type>eighth</type>
        <staff>1</staff>
      </note>
      <backup><duration>12</duration></backup>
      <!-- c16 b,16 c8_~ c16 e16 fis16 g16 a16 b16 c'16 a16 -->
      <note>
        <pitch><step>C</step><octave>3</octave></pitch>
        <duration>1</duration>
        <voice>2</voice>
        <type>16th</type>
        <staff>2</staff>
      </note>
      <note>
        <pitch><step>B</step><octave>2</octave></pitch>
        <duration>1</duration>
        <voice>2</voice>
        <type>16th</type>
        <staff>2</staff>
      </note>
      <note>
        <pitch><step>C</step><octave>3</octave></pitch>
        <duration>2</duration>
        <tie type="start"/>
        <voice>2</voice>
        <type>eighth</type>
        <staff>2</staff>
        <notations><tied type="start"/></notations>
      </note>
      <note>
        <pitch><step>C</step><octave>3</octave></pitch>
        <duration>1</duration>
        <tie type="stop"/>
        <voice>2</voice>
        <type>16th</type>
        <staff>2</staff>
        <notations><tied type="stop"/></notations>
      </note>
      <note>
        <pitch><step>E</step><octave>3</octave></pitch>
        <duration>1</duration>
        <voice>2</voice>
        <type>16th</type>
        <staff>2</staff>
      </note>
      <note>
        <pitch><step>F</step><alter>1</alter><octave>3</octave></pitch>
        <duration>1</duration>
        <voice>2</voice>
        <type>16th</type>
        <staff>2</staff>
      </note>
      <note>
        <pitch><step>G</step><octave>3</octave></pitch>
        <duration>1</duration>
        <voice>2</voice>
        <type>16th</type>
        <staff>2</staff>
      </note>
      <note>
        <pitch><step>A</step><octave>3</octave></pitch>
        <duration>1</duration>
        <voice>2</voice>
        <type>16th</type>
        <staff>2</staff>
      </note>
      <note>
        <pitch><step>B</step><octave>3</octave></pitch>
        <duration>1</duration>
        <voice>2</voice>
        <type>16th</type>
        <staff>2</staff>
      </note>
      <note>
        <pitch><step>C</step><octave>4</octave></pitch>
        <duration>1</duration>
        <voice>2</voice>
        <type>16th</type>
        <staff>2</staff>
      </note>
      <note>
        <pitch><step>A</step><octave>3</octave></pitch>
        <duration>1</duration>
        <voice>2</voice>
        <type>16th</type>
        <staff>2</staff>
      </note>
    </measure>
    <measure number="7">
      <!-- r8 fis''16[ e''16 fis''8 d''8 a''8 c''8^~] -->
      <note>
        <rest/>
        <duration>2</duration>
        <voice>1</voice>
        <type>eighth</type>
        <staff>1</staff>
      </note>
      <note>
        <pitch>
          <step>F</step>
          <alter>1</alter>
          <octave>5</octave>
        </pitch>
        <duration>1</duration>
        <voice>1</voice>
        <type>16th</type>
        <staff>1</staff>
      </note>
      <note>
        <pitch>
          <step>E</step>
          <octave>5</octave>
        </pitch>
        <duration>1</duration>
        <voice>1</voice>
        <type>16th</type>
        <staff>1</staff>
      </note>
      <note>
        <pitch>
          <step>F</step>
          <alter>1</alter>
          <octave>5</octave>
        </pitch>
        <duration>2</duration>
        <voice>1</voice>
        <type>eighth</type>
        <staff>1</staff>
      </note>
      <note>
        <pitch>
          <step>D</step>
          <octave>5</octave>
        </pitch>
        <duration>2</duration>
        <voice>1</voice>
        <type>eighth</type>
        <staff>1</staff>
      </note>
      <note>
        <pitch>
          <step>A</step>
          <octave>5</octave>
        </pitch>
        <duration>2</duration>
        <voice>1</voice>
        <type>eighth</type>
        <staff>1</staff>
      </note>
      <note>
        <pitch>
          <step>C</step>
          <octave>5</octave>
        </pitch>
        <duration>2</duration>
        <tie type="start"/>
        <voice>1</voice>
        <type>eighth</type>
        <staff>1</staff>
        <notations>
          <tied type="start"/>
        </notations>
      </note>
      <backup><duration>12</duration></backup>
      <!-- d16 cis16 d8_~ d16 a16 b16 c'16 d'16 e'16 fis'16 d'16 -->
      <note>
        <pitch><step>D</step><octave>3</octave></pitch>
        <duration>1</duration>
        <voice>2</voice>
        <type>16th</type>
        <staff>2</staff>
      </note>
      <note>
        <pitch><step>C</step><alter>1</alter><octave>3</octave></pitch>
        <duration>1</duration>
        <voice>2</voice>
        <type>16th</type>
        <accidental>sharp</accidental>
        <staff>2</staff>
      </note>
      <note>
        <pitch><step>D</step><octave>3</octave></pitch>
        <duration>2</duration>
        <tie type="start"/>
        <voice>2</voice>
        <type>eighth</type>
        <staff>2</staff>
        <notations><tied type="start"/></notations>
      </note>
      <note>
        <pitch><step>D</step><octave>3</octave></pitch>
        <duration>1</duration>
        <tie type="stop"/>
        <voice>2</voice>
        <type>16th</type>
        <staff>2</staff>
        <notations><tied type="stop"/></notations>
      </note>
      <note>
        <pitch><step>A</step><octave>3</octave></pitch>
        <duration>1</duration>
        <voice>2</voice>
        <type>16th</type>
        <staff>2</staff>
      </note>
      <note>
        <pitch><step>B</step><octave>3</octave></pitch>
        <duration>1</duration>
        <voice>2</voice>
        <type>16th</type>
        <staff>2</staff>
      </note>
      <note>
        <pitch><step>C</step><octave>4</octave></pitch>
        <duration>1</duration>
        <voice>2</voice>
        <type>16th</type>
        <accidental>natural</accidental>
        <staff>2</staff>
      </note>
      <note>
        <pitch><step>D</step><octave>4</octave></pitch>
        <duration>1</duration>
        <voice>2</voice>
        <type>16th</type>
        <staff>2</staff>
      </note>
      <note>
        <pitch><step>E</step><octave>4</octave></pitch>
        <duration>1</duration>
        <voice>2</voice>
        <type>16th</type>
        <staff>2</staff>
      </note>
      <note>
        <pitch><step>F</step><alter>1</alter><octave>4</octave></pitch>
        <duration>1</duration>
        <voice>2</voice>
        <type>16th</type>
        <staff>2</staff>
      </note>
      <note>
        <pitch><step>D</step><octave>4</octave></pitch>
        <duration>1</duration>
        <voice>2</voice>
        <type>16th</type>
        <staff>2</staff>
      </note>
    </measure>
    <measure number="8">
      <!-- c''8 b'8 r16 g'16 b'16 d''16 g''16 d''16 g''16 a''16 -->
      <note>
        <pitch><step>C</step><octave>5</octave></pitch>
        <duration>2</duration>
        <tie type="start"/>
        <voice>1</voice>
        <type>eighth</type>
        <staff>1</staff>
        <notations><tied type="stop"/></notations>
      </note>
      <note>
        <pitch><step>B</step><octave>4</octave></pitch>
        <duration>2</duration>
        <voice>1</voice>
        <type>eighth</type>
        <staff>1</staff>
      </note>
      <note>
        <rest/>
        <duration>1</duration>
        <voice>1</voice>
        <type>16th</type>
        <staff>1</staff>
      </note>
      <note>
        <pitch><step>G</step><octave>4</octave></pitch>
        <duration>1</duration>
        <voice>1</voice>
        <type>16th</type>
        <staff>1</staff>
      </note>
      <note>
        <pitch><step>B</step><octave>4</octave></pitch>
        <duration>1</duration>
        <voice>1</voice>
        <type>16th</type>
        <staff>1</staff>
      </note>
      <note>
        <pitch><step>D</step><octave>5</octave></pitch>
        <duration>1</duration>
        <voice>1</voice>
        <type>16th</type>
        <staff>1</staff>
      </note>
      <note>
        <pitch><step>G</step><octave>5</octave></pitch>
        <duration>1</duration>
        <voice>1</voice>
        <type>16th</type>
        <staff>1</staff>
      </note>
      <note>
        <pitch><step>D</step><octave>5</octave></pitch>
        <duration>1</duration>
        <voice>1</voice>
        <type>16th</type>
        <staff>1</staff>
      </note>
      <note>
        <pitch><step>G</step><octave>5</octave></pitch>
        <duration>1</duration>
        <voice>1</voice>
        <type>16th</type>
        <staff>1</staff>
      </note>
      <note>
        <pitch><step>A</step><octave>5</octave></pitch>
        <duration>1</duration>
        <voice>1</voice>
        <type>16th</type>
        <staff>1</staff>
      </note>
      <backup><duration>12</duration></backup>
      <!-- g'16 fis'16 g'16 d'16 b16 d'16 g16 b16 d16 g16 b,16 d16 -->
      <note>
        <pitch><step>G</step><octave>4</octave></pitch>
        <duration>1</duration>
        <voice>2</voice>
        <type>16th</type>
        <staff>2</staff>
      </note>
      <note>
        <pitch><step>F</step><alter>1</alter><octave>4</octave></pitch>
        <duration>1</duration>
        <voice>2</voice>
        <type>16th</type>
        <staff>2</staff>
      </note>
      <note>
        <pitch><step>G</step><octave>4</octave></pitch>
        <duration>1</duration>
        <voice>2</voice>
        <type>16th</type>
        <staff>2</staff>
      </note>
      <note>
        <pitch><step>D</step><octave>4</octave></pitch>
        <duration>1</duration>
        <voice>2</voice>
        <type>16th</type>
        <staff>2</staff>
      </note>
      <note>
        <pitch><step>B</step><octave>3</octave></pitch>
        <duration>1</duration>
        <voice>2</voice>
        <type>16th</type>
        <staff>2</staff>
      </note>
      <note>
        <pitch><step>D</step><octave>4</octave></pitch>
        <duration>1</duration>
        <voice>2</voice>
        <type>16th</type>
        <staff>2</staff>
      </note>
      <note>
        <pitch><step>G</step><octave>3</octave></pitch>
        <duration>1</duration>
        <voice>2</voice>
        <type>16th</type>
        <staff>2</staff>
      </note>
      <note>
        <pitch><step>B</step><octave>3</octave></pitch>
        <duration>1</duration>
        <voice>2</voice>
        <type>16th</type>
        <staff>2</staff>
      </note>
      <note>
        <pitch><step>D</step><octave>3</octave></pitch>
        <duration>1</duration>
        <voice>2</voice>
        <type>16th</type>
        <staff>2</staff>
      </note>
      <note>
        <pitch><step>G</step><octave>3</octave></pitch>
        <duration>1</duration>
        <voice>2</voice>
        <type>16th</type>
        <staff>2</staff>
      </note>
      <note>
        <pitch><step>B</step><octave>2</octave></pitch>
        <duration>1</duration>
        <voice>2</voice>
        <type>16th</type>
        <staff>2</staff>
      </note>
      <note>
        <pitch><step>D</step><octave>3</octave></pitch>
        <duration>1</duration>
        <voice>2</voice>
        <type>16th</type>
        <staff>2</staff>
      </note>
    </measure>
    <measure number="9">
      <!-- b''16 g''16 d''16 b'16 g'16 b'16 d''16 g''16 b''16 g''16 fis''16 e''16 -->
      <note>
        <pitch><step>B</step><octave>5</octave></pitch>
        <duration>1</duration>
        <voice>1</voice>
        <type>16th</type>
        <staff>1</staff>
      </note>
      <note>
        <pitch><step>G</step><octave>5</octave></pitch>
        <duration>1</duration>
        <voice>1</voice>
        <type>16th</type>
        <staff>1</staff>
      </note>
      <note>
        <pitch><step>D</step><octave>5</octave></pitch>
        <duration>1</duration>
        <voice>1</voice>
        <type>16th</type>
        <staff>1</staff>
      </note>
      <note>
        <pitch><step>B</step><octave>4</octave></pitch>
        <duration>1</duration>
        <voice>1</voice>
        <type>16th</type>
        <staff>1</staff>
      </note>
      <note>
        <pitch><step>G</step><octave>4</octave></pitch>
        <duration>1</duration>
        <voice>1</voice>
        <type>16th</type>
        <staff>1</staff>
      </note>
      <note>
        <pitch><step>B</step><octave>4</octave></pitch>
        <duration>1</duration>
        <voice>1</voice>
        <type>16th</type>
        <staff>1</staff>
      </note>
      <note>
        <pitch><step>D</step><octave>5</octave></pitch>
        <duration>1</duration>
        <voice>1</voice>
        <type>16th</type>
        <staff>1</staff>
      </note>
      <note>
        <pitch><step>G</step><octave>5</octave></pitch>
        <duration>1</duration>
        <voice>1</voice>
        <type>16th</type>
        <staff>1</staff>
      </note>
      <note>
        <pitch><step>B</step><octave>5</octave></pitch>
        <duration>1</duration>
        <voice>1</voice>
        <type>16th</type>
        <staff>1</staff>
      </note>
      <note>
        <pitch><step>G</step><octave>5</octave></pitch>
        <duration>1</duration>
        <voice>1</voice>
        <type>16th</type>
        <staff>1</staff>
      </note>
      <note>
        <pitch><step>F</step><alter>1</alter><octave>5</octave></pitch>
        <duration>1</duration>
        <voice>1</voice>
        <type>16th</type>
        <staff>1</staff>
      </note>
      <note>
        <pitch><step>E</step><octave>5</octave></pitch>
        <duration>1</duration>
        <voice>1</voice>
        <type>16th</type>
        <staff>1</staff>
      </note>
      <backup><duration>12</duration></backup>
      <!-- g,8[ g8 b8 g8 g,8 g8] -->
      <note>
        <pitch><step>G</step><octave>2</octave></pitch>
        <duration>2</duration>
        <voice>2</voice>
        <type>eighth</type>
        <staff>2</staff>
      </note>
      <note>
        <pitch><step>G</step><octave>3</octave></pitch>
        <duration>2</duration>
        <voice>2</voice>
        <type>eighth</type>
        <staff>2</staff>
      </note>
      <note>
        <pitch><step>B</step><octave>3</octave></pitch>
        <duration>2</duration>
        <voice>2</voice>
        <type>eighth</type>
        <staff>2</staff>
      </note>
      <note>
        <pitch><step>G</step><octave>3</octave></pitch>
        <duration>2</duration>
        <voice>2</voice>
        <type>eighth</type>
        <staff>2</staff>
      </note>
      <note>
        <pitch><step>G</step><octave>2</octave></pitch>
        <duration>2</duration>
        <voice>2</voice>
        <type>eighth</type>
        <staff>2</staff>
      </note>
      <note>
        <pitch><step>G</step><octave>3</octave></pitch>
        <duration>2</duration>
        <voice>2</voice>
        <type>eighth</type>
        <staff>2</staff>
      </note>
    </measure>
    <measure number="10">
      <!-- a''16 e''16 cis''16 a'16 fis'16 a'16 cis''16 e''16 a''16 fis''16 e''16 d''16 -->
      <note>
        <pitch><step>A</step><octave>5</octave></pitch>
        <duration>1</duration>
        <voice>1</voice>
        <type>16th</type>
        <staff>1</staff>
      </note>
      <note>
        <pitch><step>E</step><octave>5</octave></pitch>
        <duration>1</duration>
        <voice>1</voice>
        <type>16th</type>
        <staff>1</staff>
      </note>
      <note>
        <pitch><step>C</step><alter>1</alter><octave>5</octave></pitch>
        <duration>1</duration>
        <voice>1</voice>
        <type>16th</type>
        <accidental>sharp</accidental>
        <staff>1</staff>
      </note>
      <note>
        <pitch><step>A</step><octave>4</octave></pitch>
        <duration>1</duration>
        <voice>1</voice>
        <type>16th</type>
        <staff>1</staff>
      </note>
      <note>
        <pitch><step>F</step><alter>1</alter><octave>4</octave></pitch>
        <duration>1</duration>
        <voice>1</voice>
        <type>16th</type>
        <staff>1</staff>
      </note>
      <note>
        <pitch><step>A</step><octave>4</octave></pitch>
        <duration>1</duration>
        <voice>1</voice>
        <type>16th</type>
        <staff>1</staff>
      </note>
      <note>
        <pitch><step>C</step><alter>1</alter><octave>5</octave></pitch>
        <duration>1</duration>
        <voice>1</voice>
        <type>16th</type>
        <staff>1</staff>
      </note>
      <note>
        <pitch><step>E</step><octave>5</octave></pitch>
        <duration>1</duration>
        <voice>1</voice>
        <type>16th</type>
        <staff>1</staff>
      </note>
      <note>
        <pitch><step>A</step><octave>5</octave></pitch>
        <duration>1</duration>
        <voice>1</voice>
        <type>16th</type>
        <staff>1</staff>
      </note>
      <note>
        <pitch><step>F</step><alter>1</alter><octave>5</octave></pitch>
        <duration>1</duration>
        <voice>1</voice>
        <type>16th</type>
        <staff>1</staff>
      </note>
      <note>
        <pitch><step>E</step><octave>5</octave></pitch>
        <duration>1</duration>
        <voice>1</voice>
        <type>16th</type>
        <staff>1</staff>
      </note>
      <note>
        <pitch><step>D</step><octave>5</octave></pitch>
        <duration>1</duration>
        <voice>1</voice>
        <type>16th</type>
        <staff>1</staff>
      </note>
      <backup><duration>12</duration></backup>
      <!-- fis,8[ fis8 a8 fis8 fis,8 fis8] -->
      <note>
        <pitch><step>F</step><alter>1</alter><octave>2</octave></pitch>
        <duration>2</duration>
        <voice>2</voice>
        <type>eighth</type>
        <staff>2</staff>
      </note>
      <note>
        <pitch><step>F</step><alter>1</alter><octave>3</octave>
        </pitch>
        <duration>2</duration>
        <voice>2</voice>
        <type>eighth</type>
        <staff>2</staff>
      </note>
      <note>
        <pitch><step>A</step><octave>3</octave></pitch>
        <duration>2</duration>
        <voice>2</voice>
        <type>eighth</type>
        <staff>2</staff>
      </note>
      <note>
        <pitch><step>F</step><alter>1</alter><octave>3</octave></pitch>
        <duration>2</duration>
        <voice>2</voice>
        <type>eighth</type>
        <staff>2</staff>
      </note>
      <note>
        <pitch><step>F</step><alter>1</alter><octave>2</octave></pitch>
        <duration>2</duration>
        <voice>2</voice>
        <type>eighth</type>
        <staff>2</staff>
      </note>
      <note>
        <pitch><step>F</step><alter>1</alter><octave>3</octave></pitch>
        <duration>2</duration>
        <voice>2</voice>
        <type>eighth</type>
        <staff>2</staff>
      </note>
    </measure>
    <measure number="11">
      <!-- g''16 d''16 b'16 g'16 e'16 g'16 b'16 d''16 g''16 fis''16 e''16 d''16 -->
      <note>
        <pitch><step>G</step><octave>5</octave></pitch>
        <duration>1</duration>
        <voice>1</voice>
        <type>16th</type>
        <staff>1</staff>
      </note>
      <note>
        <pitch><step>D</step><octave>5</octave></pitch>
        <duration>1</duration>
        <voice>1</voice>
        <type>16th</type>
        <staff>1</staff>
      </note>
      <note>
        <pitch><step>B</step><octave>4</octave></pitch>
        <duration>1</duration>
        <voice>1</voice>
        <type>16th</type>
        <staff>1</staff>
      </note>
      <note>
        <pitch><step>G</step><octave>4</octave></pitch>
        <duration>1</duration>
        <voice>1</voice>
        <type>16th</type>
        <staff>1</staff>
      </note>
      <note>
        <pitch><step>E</step><octave>4</octave></pitch>
        <duration>1</duration>
        <voice>1</voice>
        <type>16th</type>
        <staff>1</staff>
      </note>
      <note>
        <pitch><step>G</step><octave>4</octave></pitch>
        <duration>1</duration>
        <voice>1</voice>
        <type>16th</type>
        <staff>1</staff>
      </note>
      <note>
        <pitch><step>B</step><octave>4</octave></pitch>
        <duration>1</duration>
        <voice>1</voice>
        <type>16th</type>
        <staff>1</staff>
      </note>
      <note>
        <pitch><step>D</step><octave>5</octave></pitch>
        <duration>1</duration>
        <voice>1</voice>
        <type>16th</type>
        <staff>1</staff>
      </note>
      <note>
        <pitch><step>G</step><octave>5</octave></pitch>
        <duration>1</duration>
        <voice>1</voice>
        <type>16th</type>
        <staff>1</staff>
      </note>
      <note>
        <pitch><step>F</step><alter>1</alter><octave>5</octave></pitch>
        <duration>1</duration>
        <voice>1</voice>
        <type>16th</type>
        <staff>1</staff>
      </note>
      <note>
        <pitch><step>E</step><octave>5</octave></pitch>
        <duration>1</duration>
        <voice>1</voice>
        <type>16th</type>
        <staff>1</staff>
      </note>
      <note>
        <pitch><step>D</step><octave>5</octave></pitch>
        <duration>1</duration>
        <voice>1</voice>
        <type>16th</type>
        <staff>1</staff>
      </note>
      <backup><duration>12</duration></backup>
      <!-- e,8[ e8 g8 e8 e,8 g8] -->
      <note>
        <pitch><step>E</step><octave>2</octave></pitch>
        <duration>2</duration>
        <voice>2</voice>
        <type>eighth</type>
        <staff>2</staff>
      </note>
      <note>
        <pitch><step>E</step><octave>3</octave></pitch>
        <duration>2</duration>
        <voice>2</voice>
        <type>eighth</type>
        <staff>2</staff>
      </note>
      <note>
        <pitch><step>G</step><octave>3</octave></pitch>
        <duration>2</duration>
        <voice>2</voice>
        <type>eighth</type>
        <staff>2</staff>
      </note>
      <note>
        <pitch><step>E</step><octave>3</octave></pitch>
        <duration>2</duration>
        <voice>2</voice>
        <type>eighth</type>
        <staff>2</staff>
      </note>
      <note>
        <pitch><step>E</step><octave>2</octave></pitch>
        <duration>2</duration>
        <voice>2</voice>
        <type>eighth</type>
        <staff>2</staff>
      </note>
      <note>
        <pitch><step>G</step><octave>3</octave></pitch>
        <duration>2</duration>
        <voice>2</voice>
        <type>eighth</type>
        <staff>2</staff>
      </note>
    </measure>
    <measure number="12">
      <!-- cis''16 g'16 e'16 cis'16 a16 cis'16 e'16 g'16 cis''16 e''16 d''16 cis''16 -->
      <note>
        <pitch><step>C</step><alter>1</alter><octave>5</octave></pitch>
        <duration>1</duration>
        <voice>1</voice>
        <type>16th</type>
        <accidental>sharp</accidental>
        <staff>1</staff>
      </note>
      <note>
        <pitch><step>G</step><octave>4</octave></pitch>
        <duration>1</duration>
        <voice>1</voice>
        <type>16th</type>
        <staff>1</staff>
      </note>
      <note>
        <pitch><step>E</step><octave>4</octave></pitch>
        <duration>1</duration>
        <voice>1</voice>
        <type>16th</type>
        <staff>1</staff>
      </note>
      <note>
        <pitch><step>C</step><alter>1</alter><octave>4</octave></pitch>
        <duration>1</duration>
        <voice>1</voice>
        <type>16th</type>
        <staff>1</staff>
      </note>
      <note>
        <pitch><step>A</step><octave>3</octave></pitch>
        <duration>1</duration>
        <voice>1</voice>
        <type>16th</type>
        <staff>1</staff>
      </note>
      <note>
        <pitch><step>C</step><alter>1</alter><octave>4</octave></pitch>
        <duration>1</duration>
        <voice>1</voice>
        <type>16th</type>
        <staff>1</staff>
      </note>
      <note>
        <pitch><step>E</step><octave>4</octave></pitch>
        <duration>1</duration>
        <voice>1</voice>
        <type>16th</type>
        <staff>1</staff>
      </note>
      <note>
        <pitch><step>G</step><octave>4</octave></pitch>
        <duration>1</duration>
        <voice>1</voice>
        <type>16th</type>
        <staff>1</staff>
      </note>
      <note>
        <pitch><step>C</step><alter>1</alter><octave>5</octave></pitch>
        <duration>1</duration>
        <voice>1</voice>
        <type>16th</type>
        <staff>1</staff>
      </note>
      <note>
        <pitch><step>E</step><octave>5</octave></pitch>
        <duration>1</duration>
        <voice>1</voice>
        <type>16th</type>
        <staff>1</staff>
      </note>
      <note>
        <pitch><step>D</step><octave>5</octave></pitch>
        <duration>1</duration>
        <voice>1</voice>
        <type>16th</type>
        <staff>1</staff>
      </note>
      <note>
        <pitch><step>C</step><alter>1</alter><octave>5</octave></pitch>
        <duration>1</duration>
        <voice>1</voice>
        <type>16th</type>
        <staff>1</staff>
      </note>
      <backup><duration>12</duration></backup>
      <!-- a,8 e8 g8 e8 a,8 g8 -->
      <note>
        <pitch><step>A</step><octave>2</octave></pitch>
        <duration>2</duration>
        <voice>2</voice>
        <type>eighth</type>
        <staff>2</staff>
      </note>
      <note>
        <pitch><step>E</step><octave>3</octave></pitch>
        <duration>2</duration>
        <voice>2</voice>
        <type>eighth</type>
        <staff>2</staff>
      </note>
      <note>
        <pitch><step>G</step><octave>3</octave></pitch>
        <duration>2</duration>
        <voice>2</voice>
        <type>eighth</type>
        <staff>2</staff>
      </note>
      <note>
        <pitch><step>E</step><octave>3</octave></pitch>
        <duration>2</duration>
        <voice>2</voice>
        <type>eighth</type>
        <staff>2</staff>
      </note>
      <note>
        <pitch><step>A</step><octave>2</octave></pitch>
        <duration>2</duration>
        <voice>2</voice>
        <type>eighth</type>
        <staff>2</staff>
      </note>
      <note>
        <pitch><step>G</step><octave>3</octave></pitch>
        <duration>2</duration>
        <voice>2</voice>
        <type>eighth</type>
        <staff>2</staff>
      </note>
    </measure>
    <measure number="13">
      <!-- d''8 \clef "bass" fis8 fis8 \clef "treble"  a'8 d''8 fis''8 -->
      <note>
        <pitch><step>D</step><octave>5</octave></pitch>
        <duration>2</duration>
        <voice>1</voice>
        <type>eighth</type>
        <staff>1</staff>
      </note>
      <note>
        <pitch><step>F</step><alter>1</alter><octave>3</octave></pitch>
        <duration>2</duration>
        <voice>1</voice>
        <type>eighth</type>
        <staff>1</staff>
      </note>
      <note>
        <pitch><step>F</step><alter>1</alter><octave>3</octave></pitch>
        <duration>2</duration>
        <voice>1</voice>
        <type>eighth</type>
        <staff>1</staff>
      </note>
      <note>
        <pitch><step>A</step><octave>4</octave></pitch>
        <duration>2</duration>
        <voice>1</voice>
        <type>eighth</type>
        <staff>1</staff>
      </note>
      <note>
        <pitch><step>D</step><octave>5</octave></pitch>
        <duration>2</duration>
        <voice>1</voice>
        <type>eighth</type>
        <staff>1</staff>
      </note>
      <note>
        <pitch><step>F</step><alter>1</alter><octave>5</octave></pitch>
        <duration>2</duration>
        <voice>1</voice>
        <type>eighth</type>
        <staff>1</staff>
      </note>
      <backup><duration>12</duration></backup>
      <!-- fis16 a16 d'16 fis'16 a'16 fis'16 d'16 a16 fis16 a16 d16 fis16 -->
      <note>
        <pitch><step>F</step><alter>1</alter><octave>3</octave></pitch>
        <duration>1</duration>
        <voice>2</voice>
        <type>16th</type>
        <staff>2</staff>
      </note>
      <note>
        <pitch><step>A</step><octave>3</octave></pitch>
        <duration>1</duration>
        <voice>2</voice>
        <type>16th</type>
        <staff>2</staff>
      </note>
      <note>
        <pitch><step>D</step><octave>4</octave></pitch>
        <duration>1</duration>
        <voice>2</voice>
        <type>16th</type>
        <staff>2</staff>
      </note>
      <note>
        <pitch><step>F</step><alter>1</alter><octave>4</octave></pitch>
        <duration>1</duration>
        <voice>2</voice>
        <type>16th</type>
        <staff>2</staff>
      </note>
      <note>
        <pitch><step>A</step><octave>4</octave></pitch>
        <duration>1</duration>
        <voice>2</voice>
        <type>16th</type>
        <staff>2</staff>
      </note>
      <note>
        <pitch><step>F</step><alter>1</alter><octave>4</octave></pitch>
        <duration>1</duration>
        <voice>2</voice>
        <type>16th</type>
        <staff>2</staff>
      </note>
      <note>
        <pitch><step>D</step><octave>4</octave></pitch>
        <duration>1</duration>
        <voice>2</voice>
        <type>16th</type>
        <staff>2</staff>
      </note>
      <note>
        <pitch><step>A</step><octave>3</octave></pitch>
        <duration>1</duration>
        <voice>2</voice>
        <type>16th</type>
        <staff>2</staff>
      </note>
      <note>
        <pitch><step>F</step><alter>1</alter><octave>3</octave></pitch>
        <duration>1</duration>
        <voice>2</voice>
        <type>16th</type>
        <staff>2</staff>
      </note>
      <note>
        <pitch><step>A</step><octave>3</octave></pitch>
        <duration>1</duration>
        <voice>2</voice>
        <type>16th</type>
        <staff>2</staff>
      </note>
      <note>
        <pitch><step>D</step><octave>3</octave></pitch>
        <duration>1</duration>
        <voice>2</voice>
        <type>16th</type>
        <staff>2</staff>
      </note>
      <note>
        <pitch><step>F</step><alter>1</alter><octave>3</octave></pitch>
        <duration>1</duration>
        <voice>2</voice>
        <type>16th</type>
        <staff>2</staff>
      </note>
    </measure>
    <measure number="14">
      <!-- b'8 \clef "bass" g8 g8 \clef "treble" b'8 e''8 g''8 -->
      <note>
        <pitch><step>B</step><octave>4</octave></pitch>
        <duration>2</duration>
        <voice>1</voice>
        <type>eighth</type>
        <staff>1</staff>
      </note>
      <note>
        <pitch><step>G</step><octave>3</octave></pitch>
        <duration>2</duration>
        <voice>1</voice>
        <type>eighth</type>
        <staff>1</staff>
      </note>
      <note>
        <pitch><step>G</step><octave>3</octave></pitch>
        <duration>2</duration>
        <voice>1</voice>
        <type>eighth</type>
        <staff>1</staff>
      </note>
      <note>
        <pitch><step>B</step><octave>4</octave></pitch>
        <duration>2</duration>
        <voice>1</voice>
        <type>eighth</type>
        <staff>1</staff>
      </note>
      <note>
        <pitch><step>E</step><octave>5</octave></pitch>
        <duration>2</duration>
        <voice>1</voice>
        <type>eighth</type>
        <staff>1</staff>
      </note>
      <note>
        <pitch><step>G</step><octave>5</octave></pitch>
        <duration>2</duration>
        <voice>1</voice>
        <type>eighth</type>
        <staff>1</staff>
      </note>
      <backup><duration>12</duration></backup>
      <!-- g16 b16 d'16 g'16 b'16 g'16 d'16 b16 g16 b16 e16 g16 -->
      <note>
        <pitch><step>G</step><octave>3</octave></pitch>
        <duration>1</duration>
        <voice>2</voice>
        <type>16th</type>
        <staff>2</staff>
      </note>
      <note>
        <pitch><step>B</step><octave>3</octave></pitch>
        <duration>1</duration>
        <voice>2</voice>
        <type>16th</type>
        <staff>2</staff>
      </note>
      <note>
        <pitch><step>D</step><octave>4</octave></pitch>
        <duration>1</duration>
        <voice>2</voice>
        <type>16th</type>
        <staff>2</staff>
      </note>
      <note>
        <pitch><step>G</step><octave>4</octave></pitch>
        <duration>1</duration>
        <voice>2</voice>
        <type>16th</type>
        <staff>2</staff>
      </note>
      <note>
        <pitch><step>B</step><octave>4</octave></pitch>
        <duration>1</duration>
        <voice>2</voice>
        <type>16th</type>
        <staff>2</staff>
      </note>
      <note>
        <pitch><step>G</step><octave>4</octave></pitch>
        <duration>1</duration>
        <voice>2</voice>
        <type>16th</type>
        <staff>2</staff>
      </note>
      <note>
        <pitch><step>D</step><octave>4</octave></pitch>
        <duration>1</duration>
        <voice>2</voice>
        <type>16th</type>
        <staff>2</staff>
      </note>
      <note>
        <pitch><step>B</step><octave>3</octave></pitch>
        <duration>1</duration>
        <voice>2</voice>
        <type>16th</type>
        <staff>2</staff>
      </note>
      <note>
        <pitch><step>G</step><octave>3</octave></pitch>
        <duration>1</duration>
        <voice>2</voice>
        <type>16th</type>
        <staff>2</staff>
      </note>
      <note>
        <pitch><step>B</step><octave>3</octave></pitch>
        <duration>1</duration>
        <voice>2</voice>
        <type>16th</type>
        <staff>2</staff>
      </note>
      <note>
        <pitch><step>E</step><octave>3</octave></pitch>
        <duration>1</duration>
        <voice>2</voice>
        <type>16th</type>
        <staff>2</staff>
      </note>
      <note>
        <pitch><step>G</step><octave>3</octave></pitch>
        <duration>1</duration>
        <voice>2</voice>
        <type>16th</type>
        <staff>2</staff>
      </note>
    </measure>
    <measure number="15">
      <!-- cis''16 e''16 a'16 g'16 fis'16 a'16 d''16 fis''16 g''16 e''16 d''16 cis''16 -->
      <note>
        <pitch><step>C</step><alter>1</alter><octave>5</octave></pitch>
        <duration>1</duration>
        <voice>1</voice>
        <type>16th</type>
        <accidental>sharp</accidental>
        <staff>1</staff>
      </note>
      <note>
        <pitch><step>E</step><octave>5</octave></pitch>
        <duration>1</duration>
        <voice>1</voice>
        <type>16th</type>
        <staff>1</staff>
      </note>
      <note>
        <pitch><step>A</step><octave>4</octave></pitch>
        <duration>1</duration>
        <voice>1</voice>
        <type>16th</type>
        <staff>1</staff>
      </note>
      <note>
        <pitch><step>G</step><octave>4</octave></pitch>
        <duration>1</duration>
        <voice>1</voice>
        <type>16th</type>
        <staff>1</staff>
      </note>
      <note>
        <pitch><step>F</step><alter>1</alter><octave>4</octave></pitch>
        <duration>1</duration>
        <voice>1</voice>
        <type>16th</type>
        <staff>1</staff>
      </note>
      <note>
        <pitch><step>A</step><octave>4</octave></pitch>
        <duration>1</duration>
        <voice>1</voice>
        <type>16th</type>
        <staff>1</staff>
      </note>
      <note>
        <pitch><step>D</step><octave>5</octave></pitch>
        <duration>1</duration>
        <voice>1</voice>
        <type>16th</type>
        <staff>1</staff>
      </note>
      <note>
        <pitch><step>F</step><alter>1</alter><octave>5</octave></pitch>
        <duration>1</duration>
        <voice>1</voice>
        <type>16th</type>
        <staff>1</staff>
      </note>
      <note>
        <pitch><step>G</step><octave>5</octave></pitch>
        <duration>1</duration>
        <voice>1</voice>
        <type>16th</type>
        <staff>1</staff>
      </note>
      <note>
        <pitch><step>E</step><octave>5</octave></pitch>
        <duration>1</duration>
        <voice>1</voice>
        <type>16th</type>
        <staff>1</staff>
      </note>
      <note>
        <pitch><step>D</step><octave>5</octave></pitch>
        <duration>1</duration>
        <voice>1</voice>
        <type>16th</type>
        <staff>1</staff>
      </note>
      <note>
        <pitch><step>C</step><alter>1</alter><octave>5</octave></pitch>
        <duration>1</duration>
        <voice>1</voice>
        <type>16th</type>
        <staff>1</staff>
      </note>
      <backup><duration>12</duration></backup>
      <!-- a8[ cis'8] d'16[ a16 fis16 d16] a8[ a,8] -->
      <note>
        <pitch><step>A</step><octave>3</octave></pitch>
        <duration>2</duration>
        <voice>2</voice>
        <type>eighth</type>
        <staff>2</staff>
      </note>
      <note>
        <pitch><step>C</step><alter>1</alter><octave>4</octave></pitch>
        <duration>2</duration>
        <voice>2</voice>
        <type>eighth</type>
        <accidental>sharp</accidental>
        <staff>2</staff>
      </note>
      <note>
        <pitch><step>D</step><octave>4</octave></pitch>
        <duration>1</duration>
        <voice>2</voice>
        <type>16th</type>
        <staff>2</staff>
      </note>
      <note>
        <pitch><step>A</step><octave>3</octave></pitch>
        <duration>1</duration>
        <voice>2</voice>
        <type>16th</type>
        <staff>2</staff>
      </note>
      <note>
        <pitch><step>F</step><alter>1</alter><octave>3</octave></pitch>
        <duration>1</duration>
        <voice>2</voice>
        <type>16th</type>
        <staff>2</staff>
      </note>
      <note>
        <pitch><step>D</step><octave>3</octave></pitch>
        <duration>1</duration>
        <voice>2</voice>
        <type>16th</type>
        <staff>2</staff>
      </note>
      <note>
        <pitch><step>A</step><octave>3</octave></pitch>
        <duration>2</duration>
        <voice>2</voice>
        <type>eighth</type>
        <staff>2</staff>
      </note>
      <note>
        <pitch><step>A</step><octave>2</octave></pitch>
        <duration>2</duration>
        <voice>2</voice>
        <type>eighth</type>
        <staff>2</staff>
      </note>
    </measure>
    <measure number="16">
      <!-- fis''16 d''16 cis''16 b'16 a'16 g'16 fis'16 e'16 d'4 -->
      <note>
        <pitch><step>F</step><alter>1</alter><octave>5</octave></pitch>
        <duration>1</duration>
        <voice>1</voice>
        <type>16th</type>
        <staff>1</staff>
      </note>
      <note>
        <pitch><step>D</step><octave>5</octave></pitch>
        <duration>1</duration>
        <voice>1</voice>
        <type>16th</type>
        <staff>1</staff>
      </note>
      <note>
        <pitch><step>C</step><alter>1</alter><octave>5</octave></pitch>
        <duration>1</duration>
        <voice>1</voice>
        <type>16th</type>
        <accidental>sharp</accidental>
        <staff>1</staff>
      </note>
      <note>
        <pitch><step>B</step><octave>4</octave></pitch>
        <duration>1</duration>
        <voice>1</voice>
        <type>16th</type>
        <staff>1</staff>
      </note>
      <note>
        <pitch><step>A</step><octave>4</octave></pitch>
        <duration>1</duration>
        <voice>1</voice>
        <type>16th</type>
        <staff>1</staff>
      </note>
      <note>
        <pitch><step>G</step><octave>4</octave></pitch>
        <duration>1</duration>
        <voice>1</voice>
        <type>16th</type>
        <staff>1</staff>
      </note>
      <note>
        <pitch><step>F</step><alter>1</alter><octave>4</octave></pitch>
        <duration>1</duration>
        <voice>1</voice>
        <type>16th</type>
        <staff>1</staff>
      </note>
      <note>
        <pitch><step>E</step><octave>4</octave></pitch>
        <duration>1</duration>
        <voice>1</voice>
        <type>16th</type>
        <staff>1</staff>
      </note>
      <note>
        <pitch><step>D</step><octave>4</octave></pitch>
        <duration>4</duration>
        <voice>1</voice>
        <type>quarter</type>
        <staff>1</staff>
      </note>
      <backup><duration>12</duration></backup>
      <!-- d,16 d16 e16 fis16 g16 a16 b16 cis'16 d'4 -->
      <note>
        <pitch><step>D</step><octave>2</octave></pitch>
        <duration>1</duration>
        <voice>2</voice>
        <type>16th</type>
        <staff>2</staff>
      </note>
      <note>
        <pitch><step>D</step><octave>3</octave></pitch>
        <duration>1</duration>
        <voice>2</voice>
        <type>16th</type>
        <staff>2</staff>
      </note>
      <note>
        <pitch><step>E</step><octave>3</octave></pitch>
        <duration>1</duration>
        <voice>2</voice>
        <type>16th</type>
        <staff>2</staff>
      </note>
      <note>
        <pitch><step>F</step><alter>1</alter><octave>3</octave></pitch>
        <duration>1</duration>
        <voice>2</voice>
        <type>16th</type>
        <staff>2</staff>
      </note>
      <note>
        <pitch><step>G</step><octave>3</octave></pitch>
        <duration>1</duration>
        <voice>2</voice>
        <type>16th</type>
        <staff>2</staff>
      </note>
      <note>
        <pitch><step>A</step><octave>3</octave></pitch>
        <duration>1</duration>
        <voice>2</voice>
        <type>16th</type>
        <staff>2</staff>
      </note>
      <note>
        <pitch><step>B</step><octave>3</octave></pitch>
        <duration>1</duration>
        <voice>2</voice>
        <type>16th</type>
        <staff>2</staff>
      </note>
      <note>
        <pitch><step>C</step><alter>1</alter><octave>4</octave></pitch>
        <duration>1</duration>
        <voice>2</voice>
        <type>16th</type>
        <accidental>sharp</accidental>
        <staff>2</staff>
      </note>
      <note>
        <pitch><step>D</step><octave>4</octave></pitch>
        <duration>4</duration>
        <voice>2</voice>
        <type>quarter</type>
        <staff>2</staff>
      </note>
      <barline>
        <bar-style>heavy-heavy</bar-style>
        <repeat direction="backward"/>
      </barline>
    </measure>
    <measure number="17">
      <!--  -->
      <backup><duration>12</duration></backup>
      <!--  -->
    </measure>
    <measure number="18">
      <!--  -->
      <backup><duration>12</duration></backup>
      <!--  -->
    </measure>
    <measure number="19">
      <!--  -->
      <backup><duration>12</duration></backup>
      <!--  -->
    </measure>
    <measure number="20">
      <!--  -->
      <backup><duration>12</duration></backup>
      <!--  -->
    </measure>
    <measure number="21">
      <!--  -->
      <backup><duration>12</duration></backup>
      <!--  -->
    </measure>
    <measure number="22">
      <!--  -->
      <backup><duration>12</duration></backup>
      <!--  -->
    </measure>
    <measure number="23">
      <!--  -->
      <backup><duration>12</duration></backup>
      <!--  -->
    </measure>
    <measure number="24">
      <!--  -->
      <backup><duration>12</duration></backup>
      <!--  -->
    </measure>
    <measure number="25">
      <!--  -->
      <backup><duration>12</duration></backup>
      <!--  -->
    </measure>
    <measure number="26">
      <!--  -->
      <backup><duration>12</duration></backup>
      <!--  -->
    </measure>
    <measure number="27">
      <!--  -->
      <backup><duration>12</duration></backup>
      <!--  -->
    </measure>
    <measure number="28">
      <!--  -->
      <backup><duration>12</duration></backup>
      <!--  -->
    </measure>
    <measure number="29">
      <!--  -->
      <backup><duration>12</duration></backup>
      <!--  -->
    </measure>
    <measure number="30">
      <!--  -->
      <backup><duration>12</duration></backup>
      <!--  -->
    </measure>
    <measure number="31">
      <!--  -->
      <backup><duration>12</duration></backup>
      <!--  -->
    </measure>
    <measure number="32">
      <!--  -->
      <backup><duration>12</duration></backup>
      <!--  -->
    </measure>
  </part>
</score-partwise>
